<svg width="113" height="112" viewBox="0 0 113 112" fill="none" xmlns="http://www.w3.org/2000/svg">
    <path fill-rule="evenodd" clip-rule="evenodd"
          d="M38.1299 35.379H60.8789V47.1523H61.2012C64.3799 41.4422 72.1143 35.379 83.6719 35.379C107.681 35.379 112.119 50.39 112.119 69.9191V111.214H88.4033V74.5107C88.4033 66.1074 88.2275 55.2907 76.0693 55.2907C63.9111 55.2907 61.8311 64.4297 61.8311 73.9073V111.288H38.1299V35.379ZM24.668 12.3915C24.668 14.8423 23.9446 17.238 22.5893 19.2758C21.234 21.3136 19.3077 22.9018 17.054 23.8397C14.8003 24.7776 12.3203 25.023 9.92775 24.5448C7.53519 24.0667 5.33748 22.8865 3.61255 21.1536C1.88761 19.4206 0.71291 17.2126 0.237 14.8089C-0.238909 12.4052 0.00534268 9.9137 0.938873 7.64946C1.8724 5.38521 3.45328 3.44993 5.48159 2.08834C7.50991 0.726746 9.89456 0 12.334 0C15.604 0.00389476 18.7389 1.31067 21.0511 3.63368C23.3634 5.95668 24.6641 9.10624 24.668 12.3915ZM0.0293022 35.379H24.668V111.214H0.0293022V35.379Z"
          fill="white"/>
</svg>