<svg xmlns="http://www.w3.org/2000/svg" width="738" height="618" viewBox="0 0 738 618" version="1.1">
    <path fill-opacity="0.216"
          d="M 672.500 18.649 C 671.400 18.878, 668.475 19.565, 666 20.175 C 660.403 21.556, 443.120 110.349, 319.282 161.862 C 241.816 194.086, 161.260 229.117, 100.500 257.004 C 83.450 264.829, 63.875 273.688, 57 276.691 C 40.460 283.915, 32.552 288.403, 26.669 293.907 C 20.623 299.562, 18 304.580, 18 310.492 C 18 316.801, 19.973 320.946, 25.495 326.237 L 30.209 330.754 92.821 350.019 C 133.976 362.682, 159.215 369.936, 166.467 371.185 C 189.395 375.137, 214.297 372.991, 228.278 365.858 C 230.390 364.781, 288.003 325.816, 356.308 279.269 C 424.614 232.723, 487.228 190.374, 495.452 185.160 C 512.345 174.452, 525.592 167.839, 535.201 165.318 C 541.388 163.696, 541.887 163.696, 544.372 165.324 C 546.551 166.752, 547 167.799, 547 171.450 C 547 176.594, 542.340 186.275, 535.725 194.870 C 533.401 197.890, 487.400 242.499, 433.500 294.001 C 379.600 345.503, 333.971 389.388, 332.101 391.525 C 326.116 398.365, 323.499 405.359, 323.506 414.500 C 323.515 425.290, 325.934 430.046, 336.893 440.823 C 346.540 450.310, 374.537 471.717, 406 493.664 C 445.044 520.898, 535.311 580.593, 546 586.248 C 558.261 592.735, 572.275 598.089, 583.381 600.528 C 594.530 602.977, 607.649 602.223, 615.368 598.689 C 627.914 592.945, 637.780 579.541, 642.007 562.500 C 643.879 554.954, 679.737 321.224, 691.485 240 C 694.468 219.375, 700.957 176.175, 705.907 144 C 717.298 69.940, 718.301 62.005, 717.841 49.567 C 717.524 41.007, 717.043 38.608, 714.673 33.763 C 711.393 27.060, 705.591 21.730, 699.205 19.554 C 694.925 18.096, 677.922 17.519, 672.500 18.649"
          stroke="none" fill="white" fill-rule="evenodd"/>
    <path fill-opacity="0.200"
          d="M 670 19.894 C 661.639 21.744, 628.012 35.322, 429.328 117.073 C 259.363 187.008, 197.742 213.355, 96 259.592 C 41.035 284.571, 32.490 288.928, 25.995 295.288 C 23.083 298.139, 20.093 301.926, 19.350 303.704 C 16.300 311.004, 18.704 319.376, 25.857 326.361 C 29.621 330.036, 31.813 330.795, 92.939 349.591 C 127.693 360.278, 160.262 369.795, 165.314 370.740 C 179.447 373.383, 205.029 373.097, 215.323 370.182 C 219.626 368.963, 225.026 367.015, 227.323 365.852 C 229.620 364.690, 287.726 325.435, 356.446 278.619 C 425.166 231.804, 487.716 189.522, 495.446 184.659 C 522.804 167.450, 539.502 160.991, 545.429 165.325 C 550.625 169.123, 544.095 186.013, 532.274 199.350 C 528.548 203.554, 483.875 246.620, 433 295.052 C 382.125 343.483, 337.920 385.838, 334.767 389.173 C 321.652 403.043, 319.686 417.814, 329.080 431.882 C 338.410 445.854, 382.315 478.174, 482.500 544.819 C 518.172 568.549, 541.784 583.573, 549.691 587.570 C 563.649 594.627, 577.265 599.325, 588.945 601.113 C 615.338 605.153, 634.797 590.620, 641.985 561.500 C 643.814 554.088, 678.170 329.818, 692.001 235 C 695.331 212.175, 701.830 168.975, 706.444 139 C 716.907 71.036, 718.334 59.707, 717.783 49.006 C 717.051 34.792, 711.501 25.747, 700.546 20.912 C 693.585 17.840, 681.159 17.426, 670 19.894"
          stroke="none" fill="white" fill-rule="evenodd"/>
    <path fill-opacity="0.637"
          d="M 666 21.373 C 658.285 23.434, 596.439 48.561, 409 125.790 C 257.377 188.262, 182.173 220.510, 99.500 258.506 C 81.900 266.595, 62.325 275.443, 56 278.168 C 40.365 284.905, 32.465 289.459, 26.293 295.290 C 20.281 300.969, 17.435 307.133, 18.317 312.567 C 19.112 317.467, 23.341 324.395, 27.447 327.528 C 31.713 330.781, 151.727 367.913, 166.613 370.584 C 182.086 373.361, 202.731 372.948, 215.500 369.606 C 221 368.166, 227.525 365.726, 230 364.182 C 232.475 362.639, 290.300 323.355, 358.500 276.884 C 504.183 177.619, 513.607 171.522, 529.819 166.061 C 546.815 160.335, 551.887 166.238, 544.070 182.644 C 542.535 185.865, 539.111 191.369, 536.460 194.876 C 533.787 198.413, 487.742 243.195, 433.070 295.431 C 378.857 347.229, 333.191 391.160, 331.590 393.055 C 326.380 399.223, 323.667 406.569, 323.667 414.501 C 323.667 428.847, 330.906 437.336, 365 462.974 C 394.539 485.187, 414.117 498.778, 478 541.421 C 519.886 569.381, 540.236 582.349, 549.653 587.085 C 590.433 607.592, 618.212 605.636, 633.898 581.152 C 641.104 569.903, 641.428 568.155, 665.002 413 C 677.161 332.975, 689.312 252.200, 692.004 233.500 C 694.696 214.800, 700.938 173.175, 705.875 141 C 719.266 53.739, 719.706 48.911, 715.395 36.535 C 712.960 29.543, 705.820 22.618, 698.941 20.575 C 691.037 18.228, 676.456 18.581, 666 21.373"
          stroke="none" fill="white" fill-rule="evenodd"/>
    <path fill-opacity="0.966"
          d="M 671 20.537 C 661.395 22.531, 664.473 21.332, 580.500 55.776 C 263.925 185.629, 208.748 208.946, 95.500 260.732 C 76.250 269.534, 56.094 278.653, 50.708 280.995 C 33.330 288.554, 22.781 296.768, 19.535 305.270 C 17.937 309.455, 17.923 310.222, 19.357 315.154 C 20.472 318.989, 22.171 321.735, 25.366 324.870 L 29.821 329.241 91.160 348.138 C 124.897 358.531, 157 367.969, 162.500 369.111 C 175.010 371.708, 193.897 372.617, 204.807 371.147 C 224.180 368.536, 217.006 372.943, 354 279.501 C 507.001 175.140, 511.124 172.465, 528.931 165.966 C 538.531 162.462, 543.198 162.198, 546 165 C 551.690 170.690, 543.634 189.225, 529.131 203.813 C 525.475 207.491, 479.402 251.619, 426.748 301.875 C 335.074 389.374, 330.865 393.546, 327.507 400.259 C 324.529 406.212, 324 408.294, 324 414.069 C 324 421.942, 324.737 424.258, 329.545 431.502 C 338.255 444.624, 387.041 480.614, 477.213 540.441 C 499.921 555.507, 522.220 570.385, 526.767 573.503 C 544.889 585.932, 571.626 597.525, 588.063 600.080 C 616.419 604.488, 635.555 589.578, 642.438 557.714 C 644.018 550.399, 681.709 302.728, 691.016 238.500 C 693.806 219.250, 700.106 177.400, 705.016 145.500 C 715.975 74.308, 718.381 55.455, 717.514 47.579 C 716.301 36.566, 711.637 27.904, 704.605 23.603 C 697.205 19.077, 683.886 17.862, 671 20.537"
          stroke="none" fill="white" fill-rule="evenodd"/>
</svg>