<svg xmlns="http://www.w3.org/2000/svg" width="1679" height="1149" viewBox="0 0 1679 1149">
    <path d="M826,176 L825,177 L814,177 L813,178 L804,178 L803,179 L795,179 L794,180 L789,180 L788,181 L783,181 L782,182 L778,182 L777,183 L772,183 L771,184 L767,184 L766,185 L763,185 L762,186 L759,186 L758,187 L755,187 L754,188 L751,188 L750,189 L748,189 L747,190 L744,190 L743,191 L741,191 L740,192 L738,192 L737,193 L735,193 L734,194 L732,194 L731,195 L729,195 L728,196 L727,196 L726,197 L724,197 L723,198 L721,198 L720,199 L719,199 L718,200 L717,200 L716,201 L714,201 L713,202 L712,202 L711,203 L710,203 L709,204 L708,204 L707,205 L706,205 L705,206 L704,206 L703,207 L702,207 L701,208 L700,208 L699,209 L698,209 L697,210 L696,210 L695,211 L694,211 L693,212 L692,212 L690,214 L689,214 L688,215 L687,215 L686,216 L685,216 L683,218 L682,218 L680,220 L679,220 L677,222 L676,222 L674,224 L673,224 L671,226 L670,226 L667,229 L666,229 L663,232 L662,232 L658,236 L657,236 L649,244 L648,244 L641,251 L641,252 L633,260 L633,261 L629,265 L629,266 L625,270 L625,271 L623,273 L623,274 L621,276 L621,277 L619,279 L619,280 L617,282 L617,283 L616,284 L616,285 L614,287 L614,288 L613,289 L613,290 L611,292 L611,293 L610,294 L610,295 L609,296 L609,297 L608,298 L608,299 L607,300 L607,301 L606,302 L606,303 L605,304 L605,306 L604,307 L604,308 L603,309 L603,310 L602,311 L602,313 L601,314 L601,315 L600,316 L600,318 L599,319 L599,321 L598,322 L598,324 L597,325 L597,327 L596,328 L596,330 L595,331 L595,333 L594,334 L594,337 L593,338 L593,341 L592,342 L592,346 L591,347 L591,350 L590,351 L590,356 L589,357 L589,362 L588,363 L588,370 L587,371 L587,379 L586,380 L586,424 L587,425 L587,434 L588,435 L588,441 L589,442 L589,447 L590,448 L590,452 L591,453 L591,457 L592,458 L592,461 L593,462 L593,465 L594,466 L594,469 L595,470 L595,472 L596,473 L596,475 L597,476 L597,478 L598,479 L598,481 L599,482 L599,483 L600,484 L600,486 L601,487 L601,488 L602,489 L602,491 L603,492 L603,493 L604,494 L604,495 L605,496 L605,497 L606,498 L606,499 L607,500 L607,501 L608,502 L608,503 L609,504 L609,505 L610,506 L610,507 L611,508 L611,509 L613,511 L613,512 L614,513 L614,514 L616,516 L616,517 L617,518 L617,519 L619,521 L619,522 L621,524 L621,525 L623,527 L623,528 L625,530 L625,531 L628,534 L628,535 L630,537 L629,538 L417,538 L416,539 L416,540 L413,543 L413,544 L411,546 L411,547 L409,549 L409,550 L406,553 L406,554 L404,556 L404,557 L402,559 L402,560 L399,563 L399,564 L397,566 L397,567 L395,569 L395,570 L392,573 L392,574 L390,576 L390,577 L388,579 L388,580 L385,583 L385,584 L383,586 L383,587 L381,589 L381,590 L378,593 L378,594 L376,596 L376,597 L374,599 L374,600 L371,603 L371,604 L369,606 L369,607 L367,609 L367,610 L364,613 L364,614 L362,616 L362,617 L360,619 L360,620 L357,623 L357,624 L355,626 L355,627 L353,629 L353,630 L350,633 L350,634 L348,636 L348,637 L767,637 L768,638 L769,638 L770,639 L771,639 L772,640 L773,640 L774,641 L775,641 L776,642 L777,642 L778,643 L779,643 L780,644 L781,644 L782,645 L783,645 L784,646 L785,646 L786,647 L787,647 L788,648 L789,648 L790,649 L792,649 L793,650 L794,650 L795,651 L796,651 L797,652 L798,652 L799,653 L800,653 L801,654 L802,654 L803,655 L804,655 L805,656 L806,656 L807,657 L808,657 L809,658 L810,658 L811,659 L812,659 L813,660 L814,660 L815,661 L816,661 L817,662 L818,662 L819,663 L820,663 L821,664 L822,664 L823,665 L824,665 L825,666 L826,666 L827,667 L828,667 L829,668 L830,668 L831,669 L832,669 L833,670 L834,670 L835,671 L836,671 L837,672 L838,672 L839,673 L840,673 L841,674 L842,674 L844,676 L845,676 L846,677 L847,677 L848,678 L849,678 L850,679 L851,679 L852,680 L853,680 L854,681 L855,681 L857,683 L858,683 L859,684 L860,684 L861,685 L862,685 L863,686 L864,686 L866,688 L867,688 L868,689 L869,689 L871,691 L872,691 L873,692 L874,692 L876,694 L877,694 L878,695 L879,695 L882,698 L883,698 L885,700 L886,700 L889,703 L890,703 L893,706 L894,706 L899,711 L900,711 L913,724 L913,725 L918,730 L918,731 L920,733 L920,734 L922,736 L922,737 L924,739 L924,740 L925,741 L925,742 L926,743 L926,745 L927,746 L927,747 L928,748 L928,750 L929,751 L929,753 L930,754 L930,757 L931,758 L931,763 L932,764 L932,785 L931,786 L931,792 L930,793 L930,796 L929,797 L929,800 L928,801 L928,803 L927,804 L927,806 L926,807 L926,808 L925,809 L925,811 L923,813 L923,814 L922,815 L922,816 L921,817 L921,818 L919,820 L919,821 L916,824 L916,825 L907,834 L906,834 L902,838 L901,838 L899,840 L898,840 L896,842 L895,842 L894,843 L893,843 L892,844 L891,844 L890,845 L889,845 L888,846 L887,846 L886,847 L885,847 L884,848 L883,848 L882,849 L880,849 L879,850 L878,850 L877,851 L875,851 L874,852 L871,852 L870,853 L868,853 L867,854 L864,854 L863,855 L859,855 L858,856 L853,856 L852,857 L846,857 L845,858 L836,858 L835,859 L793,859 L792,858 L783,858 L782,857 L774,857 L773,856 L767,856 L766,855 L760,855 L759,854 L754,854 L753,853 L749,853 L748,852 L744,852 L743,851 L739,851 L738,850 L734,850 L733,849 L730,849 L729,848 L726,848 L725,847 L722,847 L721,846 L718,846 L717,845 L714,845 L713,844 L710,844 L709,843 L706,843 L705,842 L703,842 L702,841 L699,841 L698,840 L696,840 L695,839 L693,839 L692,838 L689,838 L688,837 L686,837 L685,836 L683,836 L682,835 L680,835 L679,834 L677,834 L676,833 L674,833 L673,832 L671,832 L670,831 L668,831 L667,830 L665,830 L664,829 L663,829 L662,828 L660,828 L659,827 L657,827 L656,826 L654,826 L653,825 L652,825 L651,824 L649,824 L648,823 L646,823 L645,822 L644,822 L643,821 L641,821 L640,820 L638,820 L637,819 L636,819 L635,818 L633,818 L632,817 L631,817 L630,816 L628,816 L627,815 L626,815 L625,814 L623,814 L622,813 L621,813 L620,812 L618,812 L617,811 L616,811 L615,810 L613,810 L612,809 L611,809 L610,808 L609,808 L608,807 L606,807 L605,806 L604,806 L603,805 L602,805 L601,804 L599,804 L598,803 L597,803 L596,802 L594,802 L593,801 L592,801 L591,800 L590,800 L589,799 L588,799 L587,798 L585,798 L584,797 L583,797 L582,796 L581,796 L580,795 L578,795 L577,794 L576,794 L576,951 L577,951 L578,952 L580,952 L581,953 L582,953 L583,954 L584,954 L585,955 L586,955 L587,956 L589,956 L590,957 L591,957 L592,958 L593,958 L594,959 L595,959 L596,960 L597,960 L598,961 L600,961 L601,962 L602,962 L603,963 L605,963 L606,964 L607,964 L608,965 L610,965 L611,966 L613,966 L614,967 L615,967 L616,968 L618,968 L619,969 L621,969 L622,970 L623,970 L624,971 L626,971 L627,972 L629,972 L630,973 L632,973 L633,974 L636,974 L637,975 L639,975 L640,976 L642,976 L643,977 L646,977 L647,978 L649,978 L650,979 L652,979 L653,980 L656,980 L657,981 L660,981 L661,982 L664,982 L665,983 L668,983 L669,984 L672,984 L673,985 L676,985 L677,986 L681,986 L682,987 L685,987 L686,988 L691,988 L692,989 L697,989 L698,990 L702,990 L703,991 L708,991 L709,992 L714,992 L715,993 L722,993 L723,994 L730,994 L731,995 L738,995 L739,996 L749,996 L750,997 L764,997 L765,998 L792,998 L793,999 L819,999 L820,998 L839,998 L840,997 L852,997 L853,996 L862,996 L863,995 L871,995 L872,994 L878,994 L879,993 L884,993 L885,992 L890,992 L891,991 L895,991 L896,990 L900,990 L901,989 L905,989 L906,988 L909,988 L910,987 L914,987 L915,986 L917,986 L918,985 L921,985 L922,984 L925,984 L926,983 L928,983 L929,982 L932,982 L933,981 L935,981 L936,980 L938,980 L939,979 L941,979 L942,978 L944,978 L945,977 L946,977 L947,976 L949,976 L950,975 L952,975 L953,974 L955,974 L956,973 L957,973 L958,972 L959,972 L960,971 L962,971 L963,970 L964,970 L965,969 L966,969 L967,968 L969,968 L970,967 L971,967 L972,966 L973,966 L974,965 L975,965 L976,964 L977,964 L978,963 L979,963 L980,962 L981,962 L982,961 L983,961 L985,959 L986,959 L987,958 L988,958 L989,957 L990,957 L991,956 L992,956 L994,954 L995,954 L996,953 L997,953 L999,951 L1000,951 L1002,949 L1003,949 L1005,947 L1006,947 L1008,945 L1009,945 L1012,942 L1013,942 L1016,939 L1017,939 L1020,936 L1021,936 L1027,930 L1028,930 L1048,910 L1048,909 L1053,904 L1053,903 L1057,899 L1057,898 L1060,895 L1060,894 L1062,892 L1062,891 L1064,889 L1064,888 L1066,886 L1066,885 L1068,883 L1068,882 L1069,881 L1069,880 L1070,879 L1070,878 L1072,876 L1072,875 L1073,874 L1073,873 L1074,872 L1074,871 L1075,870 L1075,869 L1076,868 L1076,867 L1077,866 L1077,865 L1078,864 L1078,863 L1079,862 L1079,860 L1080,859 L1080,858 L1081,857 L1081,856 L1082,855 L1082,853 L1083,852 L1083,851 L1084,850 L1084,848 L1085,847 L1085,845 L1086,844 L1086,842 L1087,841 L1087,839 L1088,838 L1088,835 L1089,834 L1089,832 L1090,831 L1090,828 L1091,827 L1091,824 L1092,823 L1092,820 L1093,819 L1093,815 L1094,814 L1094,809 L1095,808 L1095,802 L1096,801 L1096,794 L1097,793 L1097,780 L1098,779 L1098,755 L1097,754 L1097,740 L1096,739 L1096,730 L1095,729 L1095,724 L1094,723 L1094,719 L1093,718 L1093,713 L1092,712 L1092,709 L1091,708 L1091,705 L1090,704 L1090,701 L1089,700 L1089,698 L1088,697 L1088,694 L1087,693 L1087,691 L1086,690 L1086,688 L1085,687 L1085,686 L1084,685 L1084,683 L1083,682 L1083,680 L1082,679 L1082,677 L1081,676 L1081,675 L1080,674 L1080,673 L1079,672 L1079,671 L1078,670 L1078,669 L1077,668 L1077,667 L1076,666 L1076,665 L1075,664 L1075,662 L1073,660 L1073,659 L1072,658 L1072,657 L1071,656 L1071,655 L1069,653 L1069,652 L1068,651 L1068,650 L1067,649 L1067,648 L1064,645 L1064,644 L1062,642 L1062,641 L1060,639 L1060,638 L1061,637 L1250,637 L1252,635 L1252,634 L1254,632 L1254,631 L1256,629 L1256,628 L1259,625 L1259,624 L1261,622 L1261,621 L1263,619 L1263,618 L1266,615 L1266,614 L1268,612 L1268,611 L1271,608 L1271,607 L1273,605 L1273,604 L1275,602 L1275,601 L1278,598 L1278,597 L1280,595 L1280,594 L1282,592 L1282,591 L1285,588 L1285,587 L1287,585 L1287,584 L1289,582 L1289,581 L1292,578 L1292,577 L1294,575 L1294,574 L1296,572 L1296,571 L1299,568 L1299,567 L1301,565 L1301,564 L1303,562 L1303,561 L1306,558 L1306,557 L1308,555 L1308,554 L1310,552 L1310,551 L1313,548 L1313,547 L1315,545 L1315,544 L1317,542 L1317,541 L1319,539 L1319,538 L927,538 L926,537 L925,537 L924,536 L923,536 L922,535 L921,535 L920,534 L919,534 L918,533 L917,533 L916,532 L915,532 L914,531 L913,531 L912,530 L911,530 L910,529 L909,529 L908,528 L907,528 L906,527 L905,527 L904,526 L903,526 L902,525 L900,525 L899,524 L898,524 L897,523 L896,523 L895,522 L894,522 L893,521 L892,521 L891,520 L890,520 L889,519 L888,519 L887,518 L885,518 L884,517 L883,517 L882,516 L881,516 L880,515 L879,515 L878,514 L877,514 L876,513 L875,513 L874,512 L873,512 L872,511 L871,511 L870,510 L869,510 L868,509 L867,509 L866,508 L865,508 L864,507 L863,507 L862,506 L861,506 L860,505 L859,505 L858,504 L857,504 L856,503 L855,503 L854,502 L853,502 L852,501 L851,501 L850,500 L849,500 L848,499 L847,499 L846,498 L845,498 L844,497 L843,497 L842,496 L841,496 L840,495 L839,495 L838,494 L837,494 L836,493 L835,493 L834,492 L833,492 L831,490 L830,490 L829,489 L828,489 L827,488 L826,488 L825,487 L824,487 L823,486 L822,486 L821,485 L820,485 L819,484 L818,484 L816,482 L815,482 L814,481 L813,481 L812,480 L811,480 L809,478 L808,478 L807,477 L806,477 L805,476 L804,476 L802,474 L801,474 L799,472 L798,472 L797,471 L796,471 L793,468 L792,468 L789,465 L788,465 L785,462 L784,462 L777,455 L776,455 L774,453 L774,452 L766,444 L766,443 L763,440 L763,439 L761,437 L761,436 L760,435 L760,434 L759,433 L759,432 L758,431 L758,430 L757,429 L757,428 L756,427 L756,425 L755,424 L755,422 L754,421 L754,420 L753,419 L753,415 L752,414 L752,410 L751,409 L751,387 L752,386 L752,380 L753,379 L753,376 L754,375 L754,373 L755,372 L755,370 L756,369 L756,367 L757,366 L757,365 L758,364 L758,363 L759,362 L759,361 L760,360 L760,359 L761,358 L761,357 L763,355 L763,354 L765,352 L765,351 L770,346 L770,345 L776,339 L777,339 L781,335 L782,335 L785,332 L786,332 L787,331 L788,331 L790,329 L791,329 L792,328 L793,328 L794,327 L795,327 L796,326 L797,326 L798,325 L800,325 L801,324 L802,324 L803,323 L805,323 L806,322 L808,322 L809,321 L812,321 L813,320 L816,320 L817,319 L822,319 L823,318 L828,318 L829,317 L837,317 L838,316 L864,316 L865,317 L880,317 L881,318 L891,318 L892,319 L898,319 L899,320 L904,320 L905,321 L910,321 L911,322 L915,322 L916,323 L920,323 L921,324 L925,324 L926,325 L930,325 L931,326 L934,326 L935,327 L938,327 L939,328 L942,328 L943,329 L945,329 L946,330 L949,330 L950,331 L952,331 L953,332 L955,332 L956,333 L959,333 L960,334 L962,334 L963,335 L965,335 L966,336 L968,336 L969,337 L971,337 L972,338 L974,338 L975,339 L977,339 L978,340 L980,340 L981,341 L983,341 L984,342 L986,342 L987,343 L989,343 L990,344 L991,344 L992,345 L994,345 L995,346 L997,346 L998,347 L1000,347 L1001,348 L1002,348 L1003,349 L1005,349 L1006,350 L1008,350 L1009,351 L1010,351 L1011,352 L1013,352 L1014,353 L1015,353 L1016,354 L1018,354 L1019,355 L1021,355 L1022,356 L1023,356 L1024,357 L1026,357 L1027,358 L1028,358 L1029,359 L1031,359 L1032,360 L1033,360 L1034,361 L1036,361 L1037,362 L1038,362 L1039,363 L1040,362 L1040,361 L1041,360 L1041,358 L1042,357 L1042,356 L1043,355 L1043,354 L1044,353 L1044,351 L1045,350 L1045,349 L1046,348 L1046,346 L1047,345 L1047,344 L1048,343 L1048,342 L1049,341 L1049,339 L1050,338 L1050,337 L1051,336 L1051,334 L1052,333 L1052,332 L1053,331 L1053,330 L1054,329 L1054,327 L1055,326 L1055,325 L1056,324 L1056,322 L1057,321 L1057,320 L1058,319 L1058,318 L1059,317 L1059,315 L1060,314 L1060,313 L1061,312 L1061,310 L1062,309 L1062,308 L1063,307 L1063,306 L1064,305 L1064,303 L1065,302 L1065,301 L1066,300 L1066,298 L1067,297 L1067,296 L1068,295 L1068,294 L1069,293 L1069,291 L1070,290 L1070,289 L1071,288 L1071,286 L1072,285 L1072,284 L1073,283 L1073,281 L1074,280 L1074,279 L1075,278 L1075,277 L1076,276 L1076,274 L1077,273 L1077,272 L1078,271 L1078,269 L1079,268 L1079,267 L1080,266 L1080,265 L1081,264 L1081,262 L1082,261 L1082,260 L1083,259 L1083,257 L1084,256 L1084,255 L1085,254 L1085,253 L1086,252 L1086,250 L1087,249 L1087,248 L1088,247 L1088,245 L1089,244 L1089,243 L1090,242 L1090,241 L1091,240 L1091,238 L1092,237 L1092,236 L1093,235 L1093,233 L1094,232 L1093,231 L1091,231 L1090,230 L1089,230 L1088,229 L1087,229 L1086,228 L1084,228 L1083,227 L1082,227 L1081,226 L1079,226 L1078,225 L1077,225 L1076,224 L1075,224 L1074,223 L1072,223 L1071,222 L1070,222 L1069,221 L1067,221 L1066,220 L1065,220 L1064,219 L1062,219 L1061,218 L1060,218 L1059,217 L1057,217 L1056,216 L1054,216 L1053,215 L1052,215 L1051,214 L1049,214 L1048,213 L1046,213 L1045,212 L1044,212 L1043,211 L1041,211 L1040,210 L1038,210 L1037,209 L1036,209 L1035,208 L1033,208 L1032,207 L1030,207 L1029,206 L1027,206 L1026,205 L1023,205 L1022,204 L1020,204 L1019,203 L1017,203 L1016,202 L1014,202 L1013,201 L1011,201 L1010,200 L1008,200 L1007,199 L1005,199 L1004,198 L1002,198 L1001,197 L998,197 L997,196 L995,196 L994,195 L991,195 L990,194 L988,194 L987,193 L984,193 L983,192 L981,192 L980,191 L977,191 L976,190 L973,190 L972,189 L969,189 L968,188 L965,188 L964,187 L960,187 L959,186 L956,186 L955,185 L951,185 L950,184 L946,184 L945,183 L940,183 L939,182 L934,182 L933,181 L927,181 L926,180 L920,180 L919,179 L912,179 L911,178 L903,178 L902,177 L888,177 L887,176 Z"
          fill="white"/>
    <path d="M1336,45 L1334,47 L1334,86 L1335,87 L1335,91 L1334,92 L1334,95 L1335,96 L1334,97 L1334,99 L1335,100 L1335,101 L1334,102 L1334,104 L1335,105 L1335,109 L1336,110 L1336,111 L1335,112 L1335,113 L1336,114 L1336,168 L1464,168 L1465,169 L1465,971 L1464,972 L1336,972 L1336,973 L1335,974 L1334,974 L1334,992 L1335,993 L1335,994 L1334,995 L1334,1074 L1335,1075 L1335,1085 L1334,1086 L1334,1095 L1335,1095 L1336,1096 L1338,1096 L1339,1095 L1341,1095 L1342,1096 L1343,1095 L1345,1095 L1346,1096 L1347,1096 L1348,1095 L1349,1095 L1350,1096 L1351,1095 L1354,1095 L1355,1096 L1356,1095 L1357,1095 L1358,1096 L1365,1096 L1366,1095 L1367,1096 L1368,1095 L1369,1095 L1370,1096 L1371,1095 L1372,1095 L1373,1096 L1374,1095 L1375,1096 L1376,1095 L1377,1095 L1378,1096 L1379,1095 L1380,1095 L1381,1096 L1382,1095 L1385,1095 L1386,1096 L1388,1096 L1389,1095 L1390,1095 L1391,1096 L1392,1095 L1394,1095 L1395,1096 L1396,1095 L1397,1096 L1398,1095 L1401,1095 L1402,1096 L1403,1095 L1404,1096 L1406,1096 L1407,1095 L1408,1096 L1409,1096 L1410,1095 L1415,1095 L1416,1096 L1419,1096 L1420,1095 L1421,1096 L1422,1095 L1423,1096 L1426,1096 L1427,1095 L1428,1096 L1429,1095 L1432,1095 L1433,1096 L1435,1096 L1436,1095 L1438,1095 L1439,1096 L1440,1096 L1441,1095 L1442,1095 L1443,1096 L1444,1096 L1445,1095 L1446,1095 L1447,1096 L1449,1096 L1450,1095 L1453,1095 L1454,1096 L1455,1095 L1457,1095 L1458,1096 L1459,1095 L1460,1095 L1461,1096 L1462,1095 L1466,1095 L1467,1096 L1468,1095 L1469,1096 L1470,1095 L1471,1096 L1477,1096 L1478,1095 L1479,1096 L1482,1096 L1483,1095 L1484,1096 L1485,1095 L1486,1096 L1488,1096 L1489,1095 L1490,1095 L1491,1096 L1492,1095 L1493,1096 L1497,1096 L1498,1095 L1499,1096 L1500,1095 L1501,1096 L1502,1095 L1503,1096 L1506,1096 L1507,1095 L1508,1096 L1509,1095 L1510,1096 L1514,1096 L1515,1095 L1516,1096 L1518,1096 L1519,1095 L1520,1095 L1521,1096 L1524,1096 L1525,1095 L1526,1096 L1527,1095 L1528,1096 L1529,1095 L1533,1095 L1534,1096 L1535,1096 L1536,1095 L1537,1096 L1539,1096 L1540,1095 L1541,1095 L1542,1096 L1544,1096 L1545,1095 L1546,1096 L1547,1095 L1548,1096 L1549,1095 L1550,1096 L1551,1095 L1552,1096 L1553,1095 L1554,1095 L1555,1096 L1556,1095 L1558,1095 L1559,1096 L1560,1096 L1561,1095 L1562,1095 L1563,1096 L1568,1096 L1569,1095 L1570,1096 L1571,1095 L1572,1095 L1573,1096 L1577,1096 L1578,1095 L1579,1095 L1580,1096 L1581,1096 L1582,1095 L1583,1096 L1584,1095 L1585,1095 L1586,1096 L1587,1095 L1588,1096 L1590,1096 L1591,1095 L1592,1096 L1593,1095 L1594,1095 L1595,1096 L1597,1096 L1598,1095 L1599,1096 L1603,1096 L1604,1095 L1607,1095 L1608,1096 L1609,1095 L1610,1095 L1611,1096 L1614,1096 L1615,1095 L1616,1095 L1617,1096 L1618,1095 L1618,45 Z"
          fill="white"/>
    <path d="M49,45 L49,1095 L51,1095 L52,1096 L53,1096 L54,1095 L55,1095 L56,1096 L62,1096 L63,1095 L64,1096 L65,1096 L66,1095 L67,1096 L69,1096 L70,1095 L71,1096 L73,1096 L74,1095 L75,1095 L76,1096 L77,1095 L78,1096 L79,1095 L80,1095 L81,1096 L86,1096 L87,1095 L88,1096 L89,1096 L90,1095 L91,1095 L92,1096 L93,1095 L94,1095 L95,1096 L96,1095 L97,1096 L98,1095 L99,1096 L101,1096 L102,1095 L103,1096 L105,1096 L106,1095 L107,1095 L108,1096 L110,1096 L111,1095 L113,1095 L114,1096 L115,1096 L116,1095 L117,1096 L118,1095 L121,1095 L122,1096 L129,1096 L130,1095 L134,1095 L135,1096 L136,1095 L137,1096 L138,1096 L139,1095 L141,1095 L142,1096 L143,1096 L144,1095 L148,1095 L149,1096 L150,1095 L151,1095 L152,1096 L155,1096 L156,1095 L157,1096 L158,1096 L159,1095 L160,1096 L161,1095 L162,1096 L163,1096 L164,1095 L165,1096 L166,1095 L168,1095 L169,1096 L173,1096 L174,1095 L175,1096 L176,1095 L177,1095 L178,1096 L179,1096 L180,1095 L181,1096 L182,1096 L183,1095 L186,1095 L187,1096 L188,1095 L189,1096 L190,1095 L193,1095 L194,1096 L196,1096 L197,1095 L198,1096 L199,1095 L200,1095 L201,1096 L202,1095 L204,1095 L205,1096 L206,1096 L207,1095 L208,1096 L209,1095 L210,1096 L212,1096 L213,1095 L214,1096 L215,1096 L216,1095 L217,1095 L218,1096 L226,1096 L227,1095 L231,1095 L232,1096 L233,1096 L234,1095 L236,1095 L237,1096 L239,1096 L240,1095 L241,1096 L242,1096 L243,1095 L248,1095 L249,1096 L251,1096 L252,1095 L253,1095 L254,1096 L257,1096 L258,1095 L259,1096 L260,1095 L264,1095 L265,1096 L269,1096 L270,1095 L271,1096 L272,1095 L275,1095 L276,1096 L277,1096 L278,1095 L279,1095 L280,1096 L287,1096 L288,1095 L289,1095 L290,1096 L291,1096 L292,1095 L296,1095 L297,1096 L300,1096 L301,1095 L302,1095 L303,1096 L304,1095 L308,1095 L309,1096 L310,1095 L311,1096 L312,1095 L313,1095 L314,1096 L316,1096 L317,1095 L320,1095 L321,1096 L322,1095 L325,1095 L326,1096 L327,1096 L328,1095 L330,1095 L331,1096 L332,1095 L333,1095 L333,972 L202,972 L201,971 L201,169 L202,168 L333,168 L333,45 Z"
          fill="white"/>
</svg>