<svg width="18" height="18" viewBox="0 0 18 18" fill="none" xmlns="http://www.w3.org/2000/svg">
    <path fill-rule="evenodd" clip-rule="evenodd"
          d="M4.97506 2C4.70984 2 4.45549 1.89464 4.26795 1.70711C4.08041 1.51957 3.97506 1.26522 3.97506 1C3.97506 0.734784 4.08041 0.480429 4.26795 0.292893C4.45549 0.105357 4.70984 0 4.97506 0H16.9751C17.2403 0 17.4946 0.105357 17.6822 0.292893C17.8697 0.480429 17.9751 0.734784 17.9751 1V13C17.9751 13.2652 17.8697 13.5196 17.6822 13.7071C17.4946 13.8946 17.2403 14 16.9751 14C16.7098 14 16.4555 13.8946 16.2679 13.7071C16.0804 13.5196 15.9751 13.2652 15.9751 13V3.41333L1.68172 17.7067C1.49216 17.8833 1.24143 17.9795 0.982359 17.9749C0.723291 17.9703 0.47611 17.8654 0.292893 17.6822C0.109676 17.4989 0.00472675 17.2518 0.000155796 16.9927C-0.00441516 16.7336 0.0917488 16.4829 0.268389 16.2933L14.5617 2H4.97506Z"
          fill="currentColor"/>
</svg>