<svg width="40" height="32" viewBox="0 0 40 32" fill="none" xmlns="http://www.w3.org/2000/svg">
    <path d="M4 4L16.216 13.224L16.22 13.228C17.576 14.222 18.254 14.72 18.998 14.912C19.6552 15.082 20.3448 15.082 21.002 14.912C21.746 14.72 22.426 14.222 23.786 13.224C23.786 13.224 31.62 7.212 36 4M2 23.6V8.4C2 6.16 2 5.04 2.436 4.184C2.82 3.43 3.43 2.82 4.184 2.436C5.04 2 6.16 2 8.4 2H31.6C33.84 2 34.96 2 35.814 2.436C36.568 2.82 37.18 3.43 37.564 4.184C38 5.038 38 6.158 38 8.394V23.608C38 25.844 38 26.96 37.564 27.816C37.18 28.5689 36.5674 29.1809 35.814 29.564C34.96 30 33.842 30 31.606 30H8.394C6.158 30 5.038 30 4.184 29.564C3.43139 29.1805 2.81949 28.5686 2.436 27.816C2 26.96 2 25.84 2 23.6Z"
          stroke="#1E1E1E" stroke-width="4" stroke-linecap="round" stroke-linejoin="round"/>
</svg>