<svg width="70" height="109" viewBox="0 0 70 109" fill="none" xmlns="http://www.w3.org/2000/svg">
<path d="M26.0324 38.0867C25.5576 40.2892 24.6673 42.8689 24.5124 45.3907C24.2211 50.6791 24.1749 55.9481 24.1287 61.2172C24.0936 71.2095 24.115 81.2959 24.0974 92.1726C29.0838 86.3677 30.5484 78.3299 38.6411 75.1351C38.6575 76.6594 39.0329 77.7125 38.6739 78.1836C33.1194 85.6078 29.4108 93.9696 26.3617 102.575C23.7864 109.617 20.5621 110.018 16.2353 104.305C11.7393 98.3106 6.58294 92.7122 1.80392 86.8872C0.994764 85.9666 0.695309 84.6123 0 83.2398C5.18524 82.6848 5.18523 82.6848 16.9862 94.6505C17.0077 92.9757 17.1042 91.6395 17.1062 90.3598C16.8634 77.3383 16.5261 64.3735 16.5284 51.3327C16.5541 47.0986 17.07 42.8261 18.0946 38.7596C19.9161 31.5302 25.0296 28.7172 32.1521 30.9625C35.7887 32.1039 39.1976 34.1489 42.4178 36.3072C46.0524 38.7281 49.29 41.7708 52.7923 44.399C55.2967 46.2198 58.0277 47.7768 60.7772 49.5784C63.0253 46.6952 62.8602 43.854 62.9966 41.0875C63.5434 29.3819 62.3365 17.9616 59.6969 6.50629C59.3974 5.15194 58.8529 3.81684 58.8929 2.38661C58.9319 1.59619 59.6877 0.503401 60.4426 0.0504157C60.82 -0.176077 62.1952 0.404807 62.628 0.91211C63.6812 2.45328 64.6586 4.29568 65.1836 6.02597C69.0283 18.42 70.629 31.138 69.7786 44.0486C69.6801 46.6644 69.0914 49.3188 68.2391 51.7478C66.6484 56.1541 63.4784 57.9286 59.0695 56.3559C55.4709 55.0639 52.1563 52.9623 49.0304 50.7474C44.398 47.519 40.2189 43.763 35.5865 40.5346C33.0442 38.8644 30.2567 37.2135 26.0324 38.0867Z" fill="#808080"/>
</svg>
