<svg width="40" height="40" viewBox="0 0 40 40" fill="none" xmlns="http://www.w3.org/2000/svg">
    <path d="M36.6673 17.5V9.99996C36.6673 9.1159 36.3161 8.26806 35.691 7.64294C35.0659 7.01782 34.218 6.66663 33.334 6.66663H6.66732C5.78326 6.66663 4.93542 7.01782 4.31029 7.64294C3.68517 8.26806 3.33398 9.1159 3.33398 9.99996V30C3.33398 31.8333 4.83398 33.3333 6.66732 33.3333H27.5007"
          stroke="currentColor" stroke-width="3.33333" stroke-linecap="round" stroke-linejoin="round"/>
    <path d="M36.6673 11.6666L21.7173 21.1666C21.2028 21.489 20.6078 21.66 20.0007 21.66C19.3935 21.66 18.7985 21.489 18.284 21.1666L3.33398 11.6666"
          stroke="currentColor" stroke-width="3.33333" stroke-linecap="round" stroke-linejoin="round"/>
    <path d="M33.334 23.3333V29.9999" stroke="currentColor" stroke-width="3.33333" stroke-linecap="round"
          stroke-linejoin="round"/>
    <path d="M33.334 36.6666V36.6833" stroke="currentColor" stroke-width="3.33333" stroke-linecap="round"
          stroke-linejoin="round"/>
</svg>