<svg width="23" height="23" viewBox="0 0 23 23" fill="none" xmlns="http://www.w3.org/2000/svg">
    <g clip-path="url(#clip0_776_2296)">
        <path d="M3.20215 17.128H3.20312L3.16504 17.1114L3.125 17.084C2.86051 16.9048 2.60594 16.6929 2.49414 16.4268C2.42664 16.266 2.40225 16.0627 2.48828 15.8594C2.56737 15.6729 2.70684 15.5642 2.80371 15.5069C2.98479 15.3998 3.19131 15.3681 3.29199 15.3555C3.35335 15.3479 3.40736 15.3437 3.44629 15.3419C3.46592 15.3409 3.48275 15.3412 3.49512 15.3409C3.50127 15.3407 3.50663 15.3399 3.51074 15.3399H3.53906L3.55762 15.3409C4.31337 15.3908 4.87187 15.7771 5.22266 16.1163C5.39998 16.2877 5.53327 16.4563 5.62305 16.5821C5.66807 16.6452 5.70304 16.6988 5.72754 16.7383C5.73981 16.7582 5.74962 16.7748 5.75684 16.7872C5.75941 16.7916 5.76174 16.7955 5.76367 16.7989L5.8418 16.9268C6.23938 17.5357 6.70315 17.7221 7.11328 17.7598C7.46186 17.7919 7.80534 17.7172 8.07715 17.6231C8.13232 17.3693 8.21133 17.1382 8.30664 16.9297C7.28469 16.7383 6.24612 16.3775 5.39648 15.6573C4.25921 14.6933 3.55273 13.1692 3.55273 10.8467C3.55278 9.57607 3.97144 8.50526 4.64941 7.64948C4.48643 7.06361 4.3193 5.93146 4.87207 4.53131L4.97168 4.27936L5.23047 4.19733L5.40234 4.74127C5.23155 4.20101 5.2309 4.19654 5.23145 4.19635H5.23242L5.23535 4.19537C5.23681 4.19493 5.23867 4.19487 5.24023 4.1944C5.24356 4.1934 5.24717 4.19254 5.25098 4.19147C5.25875 4.18928 5.26759 4.18704 5.27734 4.18463C5.29697 4.1798 5.32101 4.17391 5.34863 4.16901C5.40386 4.15922 5.47474 4.15029 5.56152 4.14655C5.73603 4.13902 5.97251 4.1528 6.27246 4.21686C6.83233 4.3365 7.60951 4.63417 8.62988 5.30182C9.52587 5.08102 10.4457 4.96789 11.3691 4.96686C12.291 4.96686 13.2281 5.0843 14.1084 5.30182C15.1293 4.63389 15.9068 4.33643 16.4668 4.21686C16.7666 4.15285 17.0023 4.13905 17.1768 4.14655C17.2638 4.1503 17.3353 4.15919 17.3906 4.16901C17.4181 4.17388 17.4414 4.17982 17.4609 4.18463C17.4706 4.18701 17.4796 4.1893 17.4873 4.19147C17.4912 4.19256 17.4956 4.19338 17.499 4.1944C17.5006 4.19487 17.5024 4.19492 17.5039 4.19537L17.5059 4.19635H17.5068C17.5073 4.19651 17.5079 4.19708 17.3838 4.5899L17.5078 4.19733L17.7666 4.27936L17.8662 4.53131C18.4179 5.92864 18.2516 7.05871 18.0889 7.64557C18.7846 8.50736 19.1865 9.58081 19.1865 10.8467C19.1865 13.1695 18.4794 14.6898 17.3389 15.6514C16.4889 16.368 15.449 16.7273 14.4248 16.9229C14.6363 17.3769 14.7627 17.9443 14.7627 18.6221C14.7627 19.3923 14.7586 20.0865 14.7539 20.6348C14.7492 21.1862 14.7441 21.5832 14.7441 21.7696V21.7706C14.7592 21.7706 14.7799 21.7682 14.8076 21.7637C19.0755 20.3098 22.1493 16.2504 22.1494 11.4542V11.4522C22.1671 5.43139 17.3193 0.570374 11.3691 0.570374C5.40114 0.570492 0.570312 5.43118 0.570312 11.4542C0.570422 16.2501 3.64376 20.31 7.91113 21.7637C7.93804 21.7681 7.95847 21.7714 7.97363 21.7715L7.97559 21.7696C7.97558 21.6413 7.97151 21.355 7.9668 20.9708C7.96437 20.7727 7.96369 20.551 7.96191 20.3165C6.62218 20.4696 5.69856 20.1404 5.08496 19.6729C4.73856 19.409 4.51259 19.117 4.37207 18.8878C4.30176 18.773 4.25195 18.6728 4.21875 18.5977C4.20224 18.5604 4.18975 18.529 4.18066 18.5049C4.1761 18.4929 4.17184 18.482 4.16895 18.4737C4.16849 18.4724 4.16839 18.471 4.16797 18.4698C3.9437 17.8899 3.67485 17.5446 3.48145 17.3516C3.38333 17.2538 3.30186 17.1927 3.25195 17.1592C3.22709 17.1426 3.2099 17.1323 3.20215 17.128ZM3.20215 17.128C3.20031 17.127 3.19895 17.1264 3.19824 17.126C3.19885 17.1263 3.19969 17.1273 3.20117 17.128H3.20215Z"
              fill="currentColor" stroke="currentColor" stroke-width="1.14033"/>
    </g>
    <defs>
        <clipPath id="clip0_776_2296">
            <rect width="22.8067" height="22.3412" fill="white"/>
        </clipPath>
    </defs>
</svg>