<svg width="22" height="22" viewBox="0 0 22 22" fill="none" xmlns="http://www.w3.org/2000/svg">
    <g clip-path="url(#clip0_776_2289)">
        <path fill-rule="evenodd" clip-rule="evenodd"
              d="M19.5595 22H2.44835C1.09832 22 0.00390625 20.9056 0.00390625 19.5556V2.44444C0.00390625 1.09441 1.09832 0 2.44835 0H19.5595C20.9095 0 22.0039 1.09441 22.0039 2.44444V19.5556C22.0039 20.9056 20.9095 22 19.5595 22ZM15.6828 18.9445H18.9475V12.2379C18.9475 9.4003 17.3389 8.02828 15.0922 8.02828C12.8443 8.02828 11.8983 9.77872 11.8983 9.77872V8.3519H8.75211V18.9445H11.8983V13.384C11.8983 11.8941 12.5842 11.0075 13.8969 11.0075C15.1035 11.0075 15.6828 11.8595 15.6828 13.384V18.9445ZM3.05859 5.01024C3.05859 6.08966 3.927 6.96488 4.99867 6.96488C6.07034 6.96488 6.93823 6.08966 6.93823 5.01024C6.93823 3.93082 6.07034 3.0556 4.99867 3.0556C3.927 3.0556 3.05859 3.93082 3.05859 5.01024ZM6.6548 18.9445H3.3741V8.3519H6.6548V18.9445Z"
              fill="currentColor"/>
    </g>
    <defs>
        <clipPath id="clip0_776_2289">
            <rect width="22" height="22" fill="white"/>
        </clipPath>
    </defs>
</svg>