<svg width="344" height="443" viewBox="0 0 344 443" fill="none" xmlns="http://www.w3.org/2000/svg">
    <rect x="0.456233" y="0.456233" width="343.088" height="442.088" rx="10.4934" fill="currentColor"/>
    <rect x="0.456233" y="0.456233" width="343.088" height="442.088" rx="10.4934" stroke="#323232"
          stroke-width="0.912467"/>
    <path fill-rule="evenodd" clip-rule="evenodd"
          d="M172.093 68.9286C101.349 68.9286 44 126.278 44 197.022V360.394C44 368.246 63.1164 374.612 86.6977 374.612C110.279 374.612 129.395 368.246 129.395 360.394C129.395 368.246 148.512 374.612 172.093 374.612C195.674 374.612 214.791 368.246 214.791 360.394C214.791 368.246 233.907 374.612 257.488 374.612C281.07 374.612 300.186 368.246 300.186 360.394V197.022C300.186 126.278 242.837 68.9286 172.093 68.9286Z"
          fill="#D9D9D9" fill-opacity="0.1"/>
</svg>