<svg xmlns="http://www.w3.org/2000/svg" width="1364" height="324" viewBox="0 0 1364 324" version="1.1">
    <path fill-opacity="0.078"
          d="M 272.500 46.063 C 233.463 51.581, 176.204 73.519, 133.204 99.433 C 93.422 123.408, 69.980 145.290, 70.004 158.428 C 70.025 170.049, 92.318 177.098, 151 184.038 C 172.310 186.559, 189.513 189.919, 202.014 194.005 C 218.309 199.329, 221.379 203.692, 214.494 211.736 C 194.670 234.896, 105.599 273.768, 54.500 281.559 C 43.994 283.161, 37.220 282.737, 36.331 280.421 C 34.746 276.290, 47.330 260.480, 60.621 249.904 C 67.446 244.473, 68.487 241.734, 63.928 241.202 C 60.080 240.752, 49.960 247.983, 38.911 259.076 C 29.856 268.168, 26.061 273.765, 24.607 280.173 C 23.758 283.915, 27.892 288.621, 33.323 290.098 C 38.212 291.427, 55.279 290.607, 67.500 288.456 C 111.683 280.680, 184.613 249.379, 216.536 224.491 C 225.790 217.276, 229.689 212.169, 230.272 206.500 C 231.075 198.690, 225.822 193.391, 211.990 188.056 C 196.636 182.135, 160.699 175.259, 122.678 170.967 C 102.272 168.664, 85.221 163.793, 82.378 159.454 C 80.021 155.858, 82.096 151.039, 89.333 143.303 C 106.327 125.136, 141.184 102.819, 182.360 83.743 C 228.805 62.226, 276.653 49.298, 296.525 52.898 C 304.265 54.300, 307.491 57.534, 306.504 62.902 C 304.777 72.290, 296.252 85.529, 283.343 98.871 C 278.219 104.167, 274.021 109.063, 274.013 109.750 C 273.990 111.954, 278.522 111.090, 283.185 108.001 C 289.485 103.828, 303.571 88.893, 309.195 80.424 C 324.606 57.215, 319.914 45.836, 294.500 44.782 C 288.241 44.522, 280.011 45.002, 272.500 46.063 M 674 45.590 C 667.473 46.323, 659.538 48.145, 646 52.022 C 607.809 62.959, 566.600 85.853, 542.771 109.371 C 533.076 118.939, 529.022 125.707, 529.009 132.349 C 528.984 145.564, 535.835 150.175, 575.500 163.639 C 602.059 172.654, 612.421 177.471, 619.099 183.909 C 623.771 188.411, 624.001 188.869, 622.976 191.598 C 620.023 199.461, 604.294 211.085, 581.969 221.902 C 564.996 230.125, 549.825 235.376, 536.559 237.617 C 526.221 239.364, 524 239.099, 524 236.121 C 524 233.448, 531.067 224.740, 535.419 222.050 C 541.717 218.158, 539.160 214.407, 532.397 217.616 C 527.412 219.981, 516.500 230.291, 513.422 235.543 C 510.752 240.099, 511.079 243.161, 514.543 246.036 C 516.953 248.036, 533.052 247.771, 543.500 245.560 C 579.495 237.943, 624.810 213.684, 632.753 197.781 C 635.518 192.243, 635.598 188.092, 633.034 183.068 C 628.300 173.788, 613.327 165.663, 578.528 153.490 C 556.009 145.613, 546.210 141.353, 542.250 137.717 C 535.205 131.249, 544.511 117.447, 567.500 100.267 C 591.401 82.407, 622.108 67.053, 650.784 58.624 C 665.192 54.389, 673.299 53, 683.609 53 C 699.276 53, 701.263 59.612, 691.453 79.093 C 687.601 86.743, 675.147 102.665, 666.167 111.422 C 662.827 114.679, 660.325 117.717, 660.606 118.172 C 660.888 118.627, 662.650 119, 664.522 119 C 667.308 119, 669.105 117.898, 674.411 112.935 C 693.094 95.457, 708.005 72.635, 707.996 61.528 C 707.988 50.855, 701.312 45.861, 686.500 45.448 C 681.550 45.310, 675.925 45.374, 674 45.590 M 935.801 62.051 C 930.779 64.980, 889.174 132.998, 878.427 155.850 C 874.578 164.034, 874.291 164.352, 864 171.885 C 853.585 179.507, 848.450 183, 847.659 183 C 847.433 183, 849.300 176.973, 851.808 169.606 C 856.239 156.591, 856.320 156.138, 854.661 153.606 C 853.483 151.807, 852.071 151, 850.105 151 C 847.719 151, 845.940 152.588, 839.178 160.750 C 827.395 174.973, 815.447 185.970, 811.754 185.990 C 810.109 185.999, 810.116 185.716, 811.873 181.093 C 812.898 178.395, 815.844 172.716, 818.419 168.475 C 820.994 164.233, 822.960 160.032, 822.788 159.139 C 822.616 158.246, 821.193 156.900, 819.624 156.149 C 815.042 153.952, 812.787 155.798, 806.611 166.802 C 802.135 174.778, 799.947 177.555, 795.490 180.920 C 784.934 188.890, 778 189.514, 778 182.494 C 778 174.817, 788.842 151.294, 803.348 127.500 C 811.616 113.938, 811.717 113.774, 815.938 107.009 C 820.596 99.545, 835.036 79.096, 836.124 78.423 C 836.606 78.126, 837 77.234, 837 76.441 C 837 73.834, 827.681 74.556, 824.268 77.428 C 819.569 81.382, 802.623 107.519, 785.969 136.500 C 782.493 142.550, 779.541 147.648, 779.411 147.830 C 779.280 148.011, 778.032 147.412, 776.638 146.498 C 770.261 142.320, 753.773 149.979, 742.338 162.431 C 728.028 178.013, 708.579 189.982, 705.546 185.074 C 704.899 184.028, 707.275 176.477, 710.112 170.562 C 712.489 165.605, 712.481 164.328, 710.066 163.035 C 705.588 160.639, 703.228 161.760, 694.745 170.312 C 683.784 181.362, 667.118 192.518, 664.893 190.293 C 662.934 188.334, 672.469 174.316, 680.326 167.605 C 686.945 161.951, 699.276 155.295, 704.750 154.422 C 708.799 153.776, 709 153.863, 709 156.250 C 709 159.724, 711.267 161.462, 713.936 160.034 C 715.071 159.427, 716.031 158.383, 716.069 157.715 C 716.107 157.047, 716.300 155.270, 716.499 153.767 C 717.671 144.893, 699.501 144.867, 684 153.721 C 665.702 164.172, 649.288 187.195, 653.939 195.886 C 654.892 197.667, 655.989 198, 660.895 198 C 667.797 198, 674.603 194.865, 685.405 186.712 C 689.202 183.845, 693.027 180.957, 693.905 180.293 C 695.319 179.223, 695.463 179.620, 695.178 183.793 C 694.710 190.644, 697.183 193.007, 704.789 192.978 C 711.146 192.954, 716.694 190.834, 723.916 185.673 C 726.437 183.871, 728.982 182.105, 729.572 181.749 C 730.282 181.321, 730.620 182.804, 730.572 186.138 C 730.512 190.338, 730.911 191.507, 732.974 193.179 C 738.377 197.556, 748.752 192.902, 762.356 180 C 767.285 175.325, 770.863 172.400, 770.306 173.500 C 769.749 174.600, 769.196 178.315, 769.076 181.756 C 768.876 187.509, 769.098 188.252, 771.852 191.006 C 774.266 193.420, 775.684 193.996, 779.173 193.978 C 783.895 193.954, 790.619 191.291, 795.655 187.450 C 799.376 184.612, 800.456 184.370, 799.614 186.563 C 798.853 188.547, 801.399 193.555, 803.597 194.399 C 806.186 195.392, 812.089 193.947, 816.500 191.240 C 818.700 189.890, 825.112 184.229, 830.750 178.661 C 836.388 173.092, 841 168.786, 841 169.093 C 841 170.261, 836.152 183.721, 834.010 188.500 C 832.133 192.688, 830.300 194.555, 822.727 200 C 794.347 220.403, 775.422 239.202, 763.694 258.640 C 755.307 272.539, 754.685 283.020, 761.990 287.335 C 768.965 291.455, 780.011 287.394, 791.987 276.306 C 806.591 262.785, 819.745 243.093, 833.608 214 C 836.622 207.675, 840.080 200.475, 841.294 198 C 843.077 194.363, 845.609 192.010, 854.500 185.728 C 870.153 174.668, 869.471 174.898, 866.399 181.713 C 861.062 193.551, 861.099 197.947, 866.553 200.020 C 869.375 201.093, 872.939 199.835, 873.082 197.715 C 873.367 193.511, 874.530 189.762, 877.708 182.810 L 881.305 174.942 884.402 178.298 C 888.423 182.654, 895.316 186.623, 901.107 187.916 C 906.857 189.200, 914.363 188.067, 914.790 185.852 C 915.033 184.591, 913.964 184.162, 909.707 183.809 C 906.239 183.521, 903.159 182.537, 901.069 181.049 C 897.523 178.524, 892 171.452, 892 169.436 C 892 166.285, 916.305 149.732, 923.682 147.859 C 928.137 146.727, 929.758 144.618, 927.895 142.373 C 925.162 139.080, 916.046 142.124, 903.359 150.565 C 898.591 153.738, 893.185 157.655, 891.345 159.270 C 889.505 160.886, 888 161.997, 888 161.740 C 888 160.793, 902.809 133.149, 909.022 122.500 C 915.611 111.206, 934.313 82.568, 941.158 73.293 C 945.428 67.505, 945.882 65.108, 943.171 62.655 C 941.120 60.799, 938.340 60.571, 935.801 62.051 M 1031.395 62.977 C 1028.932 63.973, 1027.483 66.370, 1014.455 91 C 992.075 133.309, 970.723 177.889, 968.007 187.973 C 966.551 193.381, 968.482 196, 973.926 196 C 977.276 196, 978.142 195.282, 985.696 186.250 C 994.568 175.641, 1010.158 160.004, 1013.745 158.116 L 1015.991 156.935 1013.407 163.717 C 1008.895 175.566, 1007.692 180.546, 1008.414 184.393 C 1009.932 192.483, 1020.191 193.827, 1031.784 187.455 C 1035.832 185.229, 1038.579 184.237, 1038.806 184.918 C 1040.501 190.003, 1050.227 190.568, 1059.500 186.121 C 1064.906 183.527, 1067.106 182.063, 1076.130 175.052 L 1078.760 173.008 1078.630 178.465 C 1078.479 184.803, 1079.876 186.781, 1085.105 187.630 C 1092.087 188.763, 1101.973 184.086, 1115.501 173.250 C 1119.106 170.363, 1122.188 168, 1122.350 168 C 1122.512 168, 1120.924 171.422, 1118.822 175.605 C 1114.508 184.189, 1114.158 186.479, 1116.934 187.965 C 1121.264 190.282, 1123.781 189.163, 1133.342 180.666 C 1146.736 168.763, 1162.485 157.151, 1163.651 158.318 C 1163.908 158.575, 1163.158 161.646, 1161.984 165.143 C 1156.948 180.146, 1158.443 186.732, 1167.105 187.708 C 1172.576 188.325, 1177.843 186.162, 1186.642 179.684 L 1192.684 175.237 1192.231 179.953 C 1191.727 185.188, 1193.708 190.238, 1196.945 191.970 C 1199.919 193.562, 1208.794 193.188, 1212.849 191.300 C 1218.209 188.803, 1227.079 179.169, 1230.379 172.258 C 1233.228 166.292, 1233.307 166.225, 1238.023 165.772 C 1240.644 165.520, 1244.675 164.380, 1246.982 163.239 L 1251.176 161.164 1250.523 163.763 C 1250.165 165.192, 1249.470 169.768, 1248.979 173.931 C 1248.489 178.094, 1247.799 183.525, 1247.446 186 C 1246.917 189.715, 1247.184 190.979, 1248.975 193.250 C 1252.585 197.825, 1255.412 196.937, 1264.500 188.373 C 1268.900 184.227, 1275.200 178.450, 1278.500 175.535 C 1301.091 155.583, 1325.154 144.998, 1335.390 150.511 C 1339.250 152.589, 1342 151.968, 1342 149.017 C 1342 142.713, 1324.495 140.770, 1310.383 145.507 C 1295.789 150.406, 1282.910 158.543, 1267.250 172.757 C 1262.713 176.876, 1259.003 179.628, 1259.008 178.873 C 1259.031 174.580, 1261.491 163.409, 1264.002 156.192 C 1265.592 151.622, 1266.639 147.222, 1266.329 146.414 C 1265.570 144.436, 1262.701 143, 1259.511 143 C 1257.313 143, 1256.513 143.847, 1254.553 148.250 C 1252.033 153.911, 1249.338 156.838, 1244.300 159.383 C 1237.846 162.644, 1234.010 161.033, 1233.985 155.050 C 1233.960 149.222, 1231.921 147.665, 1222.877 146.569 C 1218.375 146.024, 1216.931 146.212, 1215.627 147.515 C 1214.732 148.411, 1214 149.540, 1214 150.025 C 1214 150.509, 1212.522 151.608, 1210.715 152.465 C 1208.909 153.322, 1202.124 158.730, 1195.637 164.483 C 1183.461 175.282, 1174.930 181, 1170.992 181 C 1168.889 181, 1168.771 180.685, 1169.337 176.559 C 1169.672 174.117, 1171.083 168.863, 1172.473 164.885 C 1175.519 156.166, 1175.546 155.546, 1173 153 C 1168.236 148.236, 1159.269 151.809, 1141.234 165.654 C 1136.688 169.144, 1132.746 172, 1132.474 172 C 1132.202 172, 1134.009 167.959, 1136.490 163.020 C 1142.581 150.892, 1142.351 146.981, 1135.550 147.015 C 1131.721 147.035, 1130.472 147.853, 1129.494 150.981 C 1128.189 155.158, 1125.037 158.643, 1116.086 165.809 C 1105.182 174.537, 1096.362 179.905, 1091.674 180.665 C 1088.216 181.227, 1088 181.106, 1088 178.611 C 1088 177.153, 1089.125 173.192, 1090.500 169.808 C 1093.415 162.635, 1093.573 160.716, 1091.429 158.571 C 1088.820 155.963, 1085.805 156.773, 1081.034 161.363 C 1071.901 170.153, 1057.345 180.163, 1051.663 181.562 L 1048.827 182.260 1050.947 178.105 C 1055.600 168.983, 1072.449 155.004, 1083.024 151.492 C 1088.771 149.583, 1091 150.013, 1091 153.032 C 1091 154.793, 1091.518 155.077, 1094.250 154.813 C 1097.196 154.529, 1097.528 154.160, 1097.804 150.865 C 1098.053 147.881, 1097.604 146.831, 1095.304 145.008 C 1092.899 143.103, 1091.699 142.869, 1086.873 143.365 C 1073.966 144.692, 1061.734 151.272, 1050.744 162.802 C 1036.564 177.679, 1033.279 180.664, 1028.761 182.780 C 1023.361 185.309, 1019.458 185.635, 1018.685 183.621 C 1017.890 181.551, 1019.297 176.594, 1023.871 165.349 C 1029.610 151.241, 1029.309 146, 1022.760 146 C 1016.631 146, 1005.570 153.870, 992.751 167.351 C 988.489 171.833, 985.001 175.228, 985.001 174.896 C 984.999 173.795, 999.805 142.240, 1006.411 129.265 C 1013.749 114.852, 1028.780 87.606, 1036.184 75.295 C 1040.195 68.626, 1040.926 66.729, 1040.087 65.163 C 1038.454 62.110, 1035.425 61.349, 1031.395 62.977 M 473.557 82.305 C 470.775 85.223, 465.078 93.210, 460.895 100.055 C 453.102 112.806, 438.325 139.969, 436.060 145.706 C 434.830 148.820, 434.725 148.866, 432.371 147.323 C 426.223 143.295, 409.553 149.620, 397.500 160.554 C 389.842 167.502, 373.246 178.983, 363.646 183.975 C 353.978 189.002, 348.415 190.246, 347.402 187.606 C 346.703 185.785, 353.057 173.159, 358.617 165.321 C 363.402 158.575, 364.041 155.628, 361.066 154.035 C 355.788 151.210, 353.476 152.788, 345.775 164.467 C 339.188 174.456, 316.212 190.973, 310.472 189.845 C 306.471 189.059, 306.437 186.546, 310.287 176.455 C 312.318 171.132, 313.753 166.410, 313.476 165.961 C 313.199 165.513, 311.373 164.618, 309.419 163.973 C 305.880 162.805, 305.840 162.826, 299.183 169.196 C 291.297 176.743, 282.619 183.481, 274.419 188.426 C 264.037 194.686, 262.007 192.261, 269.341 182.360 C 277.663 171.127, 290.109 161.447, 301.901 157.037 C 308.427 154.597, 311 154.825, 311 157.846 C 311 158.896, 311.673 160.313, 312.495 160.996 C 314.692 162.819, 319 159.784, 319 156.411 C 319 152.465, 317.341 150.268, 313.373 148.958 C 305.971 146.515, 293.266 149.797, 282.044 157.050 C 272.583 163.165, 259.904 176.323, 256.162 183.910 C 252.309 191.720, 252.154 195.244, 255.514 198.605 C 257.748 200.839, 258.554 201.043, 262.764 200.436 C 265.369 200.061, 268.986 199.148, 270.801 198.407 C 275.367 196.543, 290.159 186.488, 293.567 182.930 C 296.264 180.115, 298.808 178.884, 297.476 181.039 C 296.348 182.865, 296.787 190.686, 298.139 192.851 C 300.115 196.015, 304.104 197.256, 309.644 196.430 C 316.456 195.414, 321.302 193.115, 330.319 186.620 C 336.675 182.042, 337.997 181.410, 337.379 183.244 C 336.050 187.193, 336.700 191.051, 339.136 193.668 C 341.330 196.026, 342.003 196.176, 348.500 195.759 C 356.469 195.247, 362.534 192.576, 375.599 183.823 L 383.544 178.500 382.076 184.126 C 380.728 189.289, 380.751 189.972, 382.356 192.421 C 388.232 201.389, 401.257 196.071, 422.391 176.074 C 425.631 173.008, 428.010 171.282, 427.677 172.238 C 426.231 176.394, 425.844 183.998, 426.915 187.242 C 428.856 193.123, 432.141 195.351, 439.571 195.824 C 443.150 196.052, 448.198 195.662, 450.789 194.959 C 464.074 191.353, 482.848 178.393, 482.964 172.750 C 483.024 169.822, 480.479 170.744, 472.311 176.606 C 463.038 183.261, 459.327 185.238, 452.068 187.390 C 444.938 189.504, 440.704 189.435, 438.655 187.171 C 433.097 181.030, 441.531 155.282, 459.063 124.875 C 470.640 104.794, 479.684 91.305, 485.250 85.815 C 492.068 79.090, 491.469 77, 482.725 77 C 479.061 77, 478.062 77.578, 473.557 82.305 M 364.905 134.360 C 361.549 136.033, 359.208 140.520, 360.567 142.675 C 362.359 145.516, 364.504 146.316, 368.383 145.588 C 372.585 144.800, 374.643 141.697, 373.633 137.674 C 372.828 134.466, 368.210 132.712, 364.905 134.360 M 958.500 148.060 C 948.852 150.325, 941.471 150.494, 937.719 148.537 C 933.832 146.509, 931.822 147.535, 932.196 151.355 C 932.644 155.927, 935.785 157.172, 945.750 156.727 C 950.288 156.524, 954 156.455, 954 156.572 C 954 156.690, 946.575 163.374, 937.500 171.425 C 928.425 179.476, 921 186.754, 921 187.598 C 921 190.423, 923.049 193, 925.285 192.987 C 926.503 192.980, 931.775 192.086, 937 191 C 948.308 188.651, 953.870 188.501, 958.469 190.423 C 964.805 193.070, 968.572 189.638, 963.936 185.442 C 962.279 183.942, 959.702 183.469, 950.855 183.037 L 939.837 182.500 948.169 174.468 C 952.751 170.051, 959.507 163.751, 963.181 160.468 C 970.401 154.019, 972.208 150.351, 969.501 147.644 C 968.597 146.740, 967.552 146.041, 967.179 146.091 C 966.805 146.141, 962.900 147.027, 958.500 148.060 M 764.523 155.681 C 757.255 159.460, 747.588 169.577, 744.003 177.155 C 739.161 187.391, 740.157 188.286, 749.595 182.180 C 756.635 177.626, 774.292 159.203, 773.527 157.209 C 773.237 156.454, 773 155.198, 773 154.418 C 773 152.333, 770.144 152.758, 764.523 155.681 M 419.826 156.354 C 409.475 161.428, 400.538 169.850, 394.642 180.088 C 389.277 189.403, 392.207 190.432, 403.166 183.081 C 410.487 178.170, 427.841 161.602, 429.162 158.263 C 431.125 153.300, 427.548 152.569, 419.826 156.354 M 1219.568 157.500 C 1218.100 159.425, 1216.281 161, 1215.527 161 C 1214.773 161, 1212.571 162.851, 1210.635 165.114 C 1203.985 172.883, 1199.892 184.977, 1203.452 186.343 C 1207.008 187.708, 1216.580 179.879, 1222.755 170.556 L 1225.759 166.021 1223.808 162.078 C 1222.269 158.967, 1222.091 157.698, 1222.964 156.067 C 1224.748 152.733, 1222.471 153.694, 1219.568 157.500 M 816.007 213.292 C 803.076 223.111, 781.565 244.712, 775.297 254.174 C 769.838 262.415, 765.662 273.199, 766.180 277.715 C 766.902 283.999, 773.771 281.149, 785.847 269.554 C 793.956 261.769, 800.617 252.789, 809.858 237.185 C 816.070 226.695, 826.684 205.854, 825.718 206.042 C 825.598 206.066, 821.228 209.328, 816.007 213.292"
          stroke="none" fill="currentColor" fill-rule="evenodd"/>
    <path fill-opacity="0.358"
          d="M 270.500 46.505 C 241.133 51.186, 202.486 64.381, 166.500 82.012 C 130.830 99.488, 100.484 119.446, 82.952 136.960 C 68.434 151.464, 66.959 162.926, 78.845 168.890 C 88.506 173.738, 109.740 178.660, 133 181.442 C 155.814 184.171, 175.075 186.982, 184.500 188.959 C 202.885 192.815, 217.128 198.678, 218.483 202.946 C 224.510 221.936, 104.348 277.973, 47.753 282.565 C 34.257 283.660, 32.798 280.873, 40.858 269.396 C 45.795 262.366, 53.841 254.327, 62.274 248 C 67.112 244.369, 68.085 242.354, 65.482 241.355 C 61.572 239.854, 48.493 249.292, 36.181 262.499 C 23.351 276.262, 21.557 284.134, 30.227 288.618 C 35.235 291.207, 59.931 290.078, 75 286.570 C 92.754 282.437, 106.090 278.401, 123 272.043 C 171.673 253.742, 216.121 228.859, 227.024 213.808 C 230.366 209.194, 230.953 203.731, 228.594 199.200 C 226.998 196.137, 218.775 190.862, 210.976 187.899 C 197.834 182.905, 167.300 177.160, 118.912 170.574 C 92.049 166.919, 81 162.670, 81 155.997 C 81 151.725, 86.607 144.445, 96.846 135.424 C 130.233 106.009, 199.361 71.249, 249.910 58.457 C 279.155 51.057, 298.882 50.093, 305.250 55.754 C 311.500 61.311, 300.886 82.039, 282.558 100.070 C 275.740 106.777, 273.222 111, 276.040 111 C 281.222 111, 295.579 98.059, 305.995 84 C 313.970 73.235, 317.280 66.075, 317.405 59.318 C 317.486 54.869, 317.081 53.698, 314.540 51.044 C 312.836 49.264, 309.471 47.327, 306.609 46.476 C 300.508 44.665, 281.951 44.679, 270.500 46.505 M 670 46.467 C 657.273 48.565, 632.055 56.157, 618.500 61.971 C 570.175 82.697, 529 115.144, 529 132.499 C 529 144.660, 537.671 150.483, 574.178 162.834 C 598.931 171.209, 607.129 174.655, 614.974 179.982 C 624.973 186.772, 625.865 190.069, 619.721 197.522 C 608.628 210.980, 566.478 232.030, 539.792 237.438 C 530.064 239.409, 524.116 239.465, 523.396 237.590 C 522.469 235.175, 525.664 230.485, 532.510 224.212 C 539.099 218.175, 539.622 216.125, 534.227 217.479 C 527.120 219.263, 513.658 232.976, 512.393 239.721 C 511.333 245.371, 514.056 247, 524.560 247 C 553.150 247, 601.928 227.462, 624.131 207.117 C 631.608 200.266, 634 196.102, 634 189.937 C 634 177.349, 620.483 168.483, 580 154.521 C 557.316 146.697, 542.737 140.054, 540.390 136.472 C 530.689 121.667, 587.437 79.462, 641.812 61.041 C 670.166 51.436, 692.112 49.663, 696.664 56.610 C 701.952 64.680, 689.410 88.069, 668.144 109.799 C 664.215 113.814, 661 117.527, 661 118.049 C 661 119.257, 664.152 119.273, 667.285 118.082 C 670.718 116.777, 684.089 103.091, 692.269 92.510 C 702.145 79.735, 707.159 69.397, 707.350 61.410 C 707.480 56.026, 707.159 54.808, 705 52.490 C 703.625 51.013, 700.840 48.954, 698.810 47.913 C 693.782 45.334, 680.816 44.683, 670 46.467 M 936.223 62.335 C 933.020 64.113, 912.860 95.112, 896.768 123 C 893.753 128.225, 889.854 134.914, 888.102 137.863 C 886.351 140.813, 882.707 147.846, 880.004 153.491 C 874.660 164.653, 872.413 166.944, 855.111 178.858 C 847.902 183.822, 845.061 184.644, 847.002 181.204 C 848.989 177.682, 855 158.692, 855 155.938 C 855 152.948, 852.740 151, 849.271 151 C 848.191 151, 845.767 153.203, 843.492 156.250 C 838.052 163.538, 821.396 180.576, 816.160 184.209 C 808.280 189.676, 808.498 184.433, 816.731 170.536 C 822.749 160.375, 822.975 159.822, 821.909 157.830 C 821.254 156.605, 819.801 156, 817.516 156 C 813.568 156, 811.261 158.558, 806.011 168.758 C 802.331 175.906, 795.820 182.177, 788.500 185.625 C 782.611 188.399, 780.697 188.554, 778.571 186.428 C 773.723 181.580, 784.690 156.844, 810.018 115.500 C 813.810 109.309, 820.587 99.142, 829.311 86.555 C 830.856 84.325, 833.268 81.299, 834.670 79.831 C 836.072 78.363, 836.918 76.676, 836.550 76.081 C 835.572 74.499, 829.361 74.762, 825.942 76.530 C 821.747 78.699, 798.242 114.688, 783.508 141.500 C 781.392 145.350, 779.534 148.666, 779.378 148.869 C 779.223 149.072, 778.367 148.510, 777.476 147.619 C 775.166 145.309, 768.537 145.621, 761.896 148.353 C 754.954 151.209, 744.707 158.981, 741.470 163.847 C 735.547 172.750, 711.035 188.771, 707.113 186.301 C 704.588 184.712, 704.672 182.594, 707.529 175.806 C 711.041 167.461, 711.478 165.281, 709.995 163.494 C 708.744 161.986, 702.004 161.359, 701.995 162.750 C 701.984 164.351, 689.814 176.123, 682.838 181.281 C 665.583 194.038, 659.613 194.088, 667.822 181.405 C 675.954 168.843, 695.766 154.492, 706 153.753 C 709.279 153.516, 709.520 153.705, 709.813 156.750 C 710.035 159.049, 710.635 160, 711.863 160 C 714.602 160, 716 157.913, 716 153.826 C 716 150.596, 715.541 149.814, 712.821 148.408 C 708.965 146.413, 702.659 146.952, 693.264 150.079 C 675.670 155.933, 655.517 176.563, 654.222 190.043 C 653.601 196.503, 654.880 198, 661.020 198 C 667.203 198, 676.935 193.071, 687.956 184.356 L 696.078 177.934 695.420 182.893 C 694.829 187.345, 695.025 188.116, 697.335 190.426 C 702.262 195.353, 711.618 193.501, 723.916 185.164 C 726.987 183.081, 729.950 181.110, 730.500 180.783 C 731.130 180.408, 731.370 182.027, 731.149 185.154 C 730.640 192.365, 732.720 194.405, 739.835 193.675 C 746.402 193, 753.339 188.531, 763.209 178.614 C 766.978 174.827, 770.248 171.915, 770.475 172.142 C 770.702 172.369, 770.476 174.387, 769.972 176.628 C 768.295 184.094, 769.896 190.378, 774.021 192.511 C 779.449 195.318, 785.765 193.698, 795.496 187.002 L 800 183.904 800 187.297 C 800 191.747, 802.574 194, 807.657 194 C 813.181 194, 819.296 189.745, 831.249 177.583 C 836.611 172.128, 841.267 167.933, 841.595 168.262 C 842.142 168.809, 840.558 173.316, 834.733 187.781 C 832.873 192.399, 831.469 193.901, 823.553 199.739 C 788.176 225.831, 766.948 248.651, 759.368 268.737 C 756.396 276.611, 756.619 281.901, 760.078 285.583 C 768.535 294.586, 788.523 283.825, 805.323 261.224 C 816.725 245.885, 830.693 221.375, 837.935 204 C 839.654 199.875, 841.835 195.577, 842.780 194.450 C 845.022 191.777, 868.015 175.682, 868.664 176.331 C 868.938 176.605, 868.596 177.880, 867.904 179.164 C 867.212 180.449, 865.639 184.374, 864.407 187.887 C 862.647 192.910, 862.396 194.776, 863.236 196.618 C 864.482 199.354, 867.154 200.429, 870.572 199.571 C 872.507 199.086, 873.006 198.306, 873.029 195.731 C 873.059 192.370, 877.323 181.029, 880.096 176.935 L 881.691 174.579 884.908 178.243 C 889.878 183.902, 898.961 188, 906.537 188 C 910.519 188, 913.156 187.517, 913.869 186.658 C 915.467 184.732, 914.257 184, 909.473 184 C 903.326 184, 896.396 178.966, 892.361 171.571 C 890.788 168.687, 890.815 168.598, 894.132 165.824 C 901.483 159.673, 917.457 149.570, 922.337 147.984 C 926.191 146.731, 927.581 145.760, 927.820 144.153 C 928.355 140.545, 920.698 141.191, 912.543 145.441 C 906.465 148.610, 893.303 157.582, 890.179 160.687 C 886.865 163.980, 887.620 161.187, 892.731 151.250 C 899.482 138.126, 907.433 123.876, 911.005 118.500 C 912.467 116.300, 913.912 113.825, 914.216 113 C 914.519 112.175, 921.345 101.707, 929.384 89.737 C 944.224 67.641, 945.860 64.066, 942.066 62.035 C 939.643 60.739, 939.043 60.770, 936.223 62.335 M 1032.374 62.985 C 1029.646 64.087, 1027.657 67.012, 1020.462 80.500 C 992.265 133.362, 969.330 181.122, 968.240 189.245 C 967.617 193.892, 969.445 196, 974.098 196 C 976.159 196, 977.855 194.735, 981.132 190.750 C 993.918 175.205, 1012.404 157, 1015.403 157 C 1016.355 157, 1015.007 161.677, 1011.834 169.388 C 1008.159 178.318, 1007.963 185.677, 1011.314 188.826 C 1015.169 192.447, 1022.281 191.834, 1031.446 187.091 C 1036.671 184.388, 1039 183.610, 1039 184.568 C 1039 185.330, 1040.140 186.701, 1041.533 187.613 C 1047.247 191.357, 1060.922 186.887, 1072.430 177.514 C 1075.478 175.031, 1078.203 173, 1078.486 173 C 1078.769 173, 1079 175.449, 1079 178.443 C 1079 185.036, 1081.060 187, 1087.973 186.999 C 1094.145 186.998, 1102.384 182.897, 1113.750 174.169 C 1118.838 170.263, 1123 167.214, 1123 167.395 C 1123 167.575, 1121.140 171.693, 1118.866 176.544 L 1114.733 185.365 1116.977 187.183 C 1121.144 190.557, 1123.637 189.479, 1133.500 180.038 C 1143.680 170.293, 1162.916 156.557, 1164.337 158.016 C 1164.596 158.282, 1163.511 162.325, 1161.925 167 C 1158.359 177.515, 1158.258 181.026, 1161.414 184.694 C 1163.428 187.036, 1164.574 187.484, 1168.335 187.406 C 1173.936 187.289, 1182.135 183.394, 1188.415 177.866 C 1190.984 175.604, 1193.294 173.961, 1193.548 174.215 C 1193.802 174.468, 1193.498 176.141, 1192.874 177.931 C 1192.024 180.369, 1192.029 182.154, 1192.894 185.040 C 1197.427 200.171, 1219.654 192.495, 1229.862 172.273 C 1232.864 166.327, 1232.911 166.289, 1238.050 165.680 C 1240.893 165.344, 1244.802 164.135, 1246.736 162.994 C 1248.670 161.852, 1250.468 161.134, 1250.731 161.398 C 1250.995 161.662, 1250.426 168.226, 1249.467 175.986 C 1247.382 192.852, 1247.852 195, 1253.630 195 C 1256.892 195, 1258.325 194.015, 1266.402 186.223 C 1283.238 169.981, 1296.962 159.769, 1310.756 153.218 C 1317.016 150.245, 1319.726 149.551, 1326.444 149.198 C 1333.058 148.851, 1334.815 149.072, 1335.905 150.386 C 1337.545 152.362, 1339.381 152.451, 1340.895 150.627 C 1345.736 144.793, 1328.759 140.872, 1314.460 144.521 C 1300.787 148.011, 1280.540 160.467, 1265.052 174.917 C 1262.056 177.713, 1259.335 180, 1259.005 180 C 1257.805 180, 1260.748 164.270, 1263.545 155.744 C 1266.123 147.881, 1266.260 146.831, 1264.885 145.456 C 1264.043 144.614, 1262.045 143.829, 1260.445 143.712 C 1257.853 143.523, 1257.208 144.119, 1254.518 149.194 C 1251.268 155.324, 1248.258 158.159, 1242.395 160.608 C 1239.338 161.886, 1238.256 161.940, 1236.337 160.913 C 1234.443 159.899, 1234 158.846, 1234 155.354 C 1234 150.153, 1232.124 148.615, 1224.011 147.166 C 1218.029 146.098, 1215.508 146.825, 1214.532 149.900 C 1214.200 150.945, 1212.932 152.053, 1211.714 152.361 C 1210.496 152.670, 1204.325 157.485, 1198 163.063 C 1180.690 178.327, 1172.457 183.454, 1169.368 180.891 C 1167.698 179.505, 1168.014 177.430, 1171.629 166.012 C 1172.933 161.894, 1174 157.532, 1174 156.319 C 1174 153.792, 1170.555 151, 1167.437 151 C 1163.814 151, 1153.943 156.598, 1143 164.859 C 1137.225 169.218, 1132.371 172.447, 1132.214 172.035 C 1132.057 171.622, 1133.969 167.091, 1136.464 161.965 C 1138.959 156.839, 1141 151.815, 1141 150.801 C 1141 149.787, 1139.857 148.436, 1138.460 147.800 C 1134.777 146.122, 1130.836 147.779, 1129.864 151.414 C 1128.876 155.110, 1123.550 160.648, 1114 167.907 C 1100.373 178.266, 1091.853 182.616, 1088.674 180.838 C 1086.358 179.541, 1086.550 177.948, 1090 169.840 C 1093.557 161.481, 1093.551 161.551, 1091 159 C 1088.280 156.280, 1086.376 156.485, 1083.194 159.840 C 1072.660 170.944, 1049 185.808, 1049 181.321 C 1049 179.074, 1055.204 170.999, 1061.294 165.321 C 1074.789 152.739, 1092 145.815, 1092 152.969 C 1092 154.258, 1092.657 155, 1093.800 155 C 1098.095 155, 1099.451 149.451, 1096 146 C 1091.696 141.696, 1076.692 144.312, 1064.380 151.511 C 1059.956 154.098, 1054.715 159.036, 1039.608 174.847 C 1030.562 184.315, 1018.921 188.135, 1018.196 181.874 C 1018.028 180.430, 1019.951 174.130, 1022.469 167.874 C 1028.096 153.892, 1028.855 149.998, 1026.426 147.569 C 1022.069 143.212, 1012.342 148.677, 996.083 164.617 C 990.262 170.323, 985.388 174.994, 985.250 174.996 C 984.305 175.011, 985.437 171.410, 987.955 166.390 C 989.581 163.151, 994.895 152.170, 999.765 141.988 C 1004.635 131.807, 1011.127 118.982, 1014.190 113.488 C 1017.254 107.995, 1021.470 100.350, 1023.559 96.500 C 1025.648 92.650, 1029.360 86.125, 1031.807 82 C 1041.349 65.918, 1041.312 66.033, 1037.777 63.557 C 1035.276 61.805, 1035.293 61.806, 1032.374 62.985 M 477.532 78.969 C 473.946 81.333, 472.454 83.161, 465.671 93.500 C 455.638 108.792, 441.616 133.732, 437.011 144.473 C 435.285 148.500, 434.746 149.034, 433.474 147.979 C 432.458 147.135, 429.774 146.891, 425.161 147.221 C 416.861 147.814, 407.085 152.567, 398.285 160.285 C 384.874 172.047, 368.091 183.139, 356.712 187.760 C 343.791 193.007, 343.963 186.403, 357.258 166.791 C 360.506 162.001, 363.009 157.276, 362.822 156.291 C 362.565 154.935, 361.366 154.427, 357.890 154.201 L 353.298 153.903 348.960 160.701 C 342.439 170.922, 330.083 181.863, 318.290 187.859 C 313.268 190.413, 310.284 190.567, 307.886 188.397 C 306.199 186.870, 306.283 186.319, 309.647 176.858 C 313.567 165.836, 313.294 164, 307.734 164 C 305.327 164, 303.066 165.579, 296.606 171.775 C 288.594 179.461, 274.195 189.835, 268.574 191.972 C 261.723 194.577, 263.221 188.724, 272.171 177.918 C 280.512 167.846, 298.011 156.479, 307.039 155.268 C 310.486 154.806, 310.742 154.962, 311.328 157.888 C 312.045 161.477, 315.370 162.198, 317.608 159.250 C 322.989 152.161, 312.270 146.454, 299.580 149.651 C 288.040 152.559, 279.848 157.718, 267.815 169.655 C 258.974 178.425, 254 186.766, 254 192.819 C 254 197.948, 256.017 200, 261.061 200 C 268.655 200, 277.019 195.650, 291.238 184.308 L 297.976 178.933 297.355 184.879 C 296.777 190.409, 296.922 191.013, 299.434 193.524 C 301.905 195.996, 302.663 196.191, 308.378 195.827 C 315.841 195.352, 323.218 191.920, 332.017 184.829 L 338.018 179.993 337.381 185.414 C 336.796 190.391, 336.965 191.056, 339.442 193.533 C 341.873 195.964, 342.702 196.190, 347.837 195.818 C 354.657 195.325, 363.528 191.389, 375.690 183.461 C 383.059 178.658, 384.160 178.197, 383.505 180.185 C 383.086 181.458, 382.535 184.597, 382.281 187.160 C 381.900 191.004, 382.205 192.205, 384.024 194.024 C 385.892 195.892, 387.047 196.161, 391.578 195.785 C 398.422 195.218, 408.088 189.012, 419.662 177.756 L 427.823 169.818 427.281 177.732 C 426.332 191.582, 430.815 196.743, 442.881 195.691 C 452.147 194.883, 459.888 191.925, 469.539 185.503 C 478.606 179.469, 483.231 174.766, 482.351 172.473 C 481.523 170.313, 480.932 170.547, 474.425 175.608 C 462.395 184.963, 445.714 191.410, 440.278 188.804 C 436.395 186.943, 435.354 183.191, 436.792 176.237 C 438.610 167.447, 442.669 155.736, 447.216 146.163 C 457.145 125.257, 478.070 91.778, 485.911 84.254 C 490.311 80.031, 490.420 79.791, 488.559 78.425 C 485.836 76.426, 481.031 76.663, 477.532 78.969 M 363.059 135.941 C 360.980 138.020, 360.494 140.519, 361.607 143.418 C 362.032 144.527, 363.522 145, 366.584 145 C 370.193 145, 371.252 144.545, 372.667 142.385 C 374.202 140.043, 374.227 139.494, 372.909 137.135 C 370.960 133.645, 365.961 133.039, 363.059 135.941 M 958.500 148.479 C 949.188 151.068, 943.510 151.360, 938.641 149.501 C 933.540 147.553, 932 148.042, 932 151.610 C 932 155.509, 937.599 157.404, 946.831 156.628 C 950.864 156.289, 954.014 156.379, 953.831 156.828 C 953.649 157.276, 946.975 163.395, 939 170.424 C 921.815 185.571, 921.033 186.409, 921.701 188.964 C 922.762 193.022, 924.297 193.248, 935.380 190.978 C 942.712 189.477, 947.803 188.990, 952.198 189.371 C 955.664 189.671, 960.032 190.048, 961.905 190.208 C 966.063 190.565, 966.881 188.898, 963.907 186.128 C 961.234 183.638, 955.693 182.711, 946.164 183.161 C 942.221 183.348, 938.997 183.208, 938.998 182.852 C 938.999 182.495, 945.995 175.750, 954.545 167.862 C 968.652 154.848, 970.064 153.242, 969.795 150.510 C 969.544 147.953, 969.048 147.469, 966.500 147.295 C 964.850 147.182, 961.250 147.715, 958.500 148.479 M 422.747 154.519 C 412.820 158.165, 398.613 171.115, 393.680 181.014 C 389.615 189.171, 391.627 190.059, 401.574 184.496 C 409.731 179.934, 428.686 161.937, 429.852 157.646 C 431.232 152.565, 429.793 151.932, 422.747 154.519 M 763.308 155.997 C 756.041 160.164, 748.043 168.401, 744.232 175.640 C 738.517 186.496, 740.435 188.722, 750.013 182.350 C 756.189 178.242, 769.671 164.717, 774.086 158.200 C 777.320 153.427, 777.758 152.126, 775.500 154 C 774.464 154.860, 774 154.898, 774 154.122 C 774 152.041, 768.535 152.999, 763.308 155.997 M 1219.737 157 C 1217.762 159.200, 1215.476 161, 1214.657 161 C 1211.345 161, 1202.481 175.421, 1201.836 181.859 C 1201.584 184.374, 1202.016 185.565, 1203.557 186.603 C 1205.435 187.867, 1206.131 187.572, 1211.546 183.210 C 1214.808 180.581, 1219.462 175.585, 1221.889 172.106 L 1226.302 165.780 1224.553 162.820 C 1223.327 160.744, 1222.996 158.834, 1223.447 156.430 C 1223.801 154.543, 1223.919 153, 1223.709 153 C 1223.500 153, 1221.712 154.800, 1219.737 157 M 822.375 207.779 C 820.656 209.276, 815.512 213.425, 810.943 217 C 791.149 232.491, 772.558 254.291, 767.943 267.422 C 765.602 274.083, 765.372 280.822, 767.458 281.622 C 772.050 283.384, 787.726 270.236, 798.392 255.676 C 806.419 244.719, 820.498 220.004, 826.833 205.750 C 827.529 204.184, 825.381 205.162, 822.375 207.779"
          stroke="none" fill="currentColor" fill-rule="evenodd"/>
    <path fill-opacity="0.218"
          d="M 279.500 45.677 C 268.175 46.642, 248.222 51.132, 228.500 57.153 C 188.093 69.488, 137.673 94.674, 105.011 118.837 C 102.530 120.673, 99.150 123.144, 97.500 124.329 C 91.573 128.585, 76.766 143.589, 74.209 147.930 C 70.953 153.457, 70.510 161.691, 73.303 164.780 C 78.946 171.023, 101.308 176.913, 137 181.560 C 172.855 186.228, 181.796 187.677, 192.821 190.611 C 212.127 195.747, 219 199.573, 219 205.181 C 219 211.531, 202.157 224.998, 178 237.962 C 127.089 265.284, 47.637 289.767, 36.443 281.582 C 34.542 280.192, 34.558 280.053, 37.226 274.612 C 40.287 268.371, 51.173 256.421, 60.716 248.828 C 65.816 244.770, 66.835 243.506, 65.908 242.389 C 65.274 241.625, 64.186 241, 63.492 241 C 60.890 241, 49.587 249.536, 41.147 257.872 C 27.004 271.844, 22.947 279.217, 26.455 284.572 C 29.077 288.573, 33.772 290.002, 44.218 289.980 C 72.039 289.921, 114.446 277.456, 160.500 255.800 C 180.173 246.550, 182.140 245.520, 198 236.168 C 212.937 227.360, 224.369 218.054, 227.362 212.267 C 232.243 202.829, 229.682 197.637, 216.976 191.216 C 203.193 184.250, 176.869 178.714, 123.500 171.556 C 102.227 168.703, 93.617 166.795, 86.969 163.461 C 77.703 158.813, 78.364 153.628, 89.732 141.804 C 106.546 124.315, 134.794 106.090, 176.064 86.105 C 211.397 68.996, 242.788 58.289, 271.681 53.492 C 285.512 51.196, 299.771 51.690, 303.679 54.601 C 311.933 60.747, 303.621 79.238, 283.422 99.665 C 274.910 108.274, 272.891 111.795, 277.250 110.430 C 281.379 109.138, 287.425 104.321, 295.568 95.834 C 309.314 81.508, 317 68.317, 317 59.048 C 317 54.924, 316.519 53.673, 313.946 51.100 C 308.613 45.766, 298.020 44.099, 279.500 45.677 M 665.016 47.564 C 620.643 57.182, 571.816 82.085, 544.193 109.187 C 535.140 118.070, 531.785 122.987, 529.868 130.186 C 528.719 134.497, 528.807 135.236, 530.968 139.438 C 535.255 147.773, 543.373 152.061, 574.770 162.575 C 603.027 172.037, 620.298 180.878, 623.779 187.663 C 628.472 196.809, 594.016 220.514, 558.646 232.474 C 541.317 238.333, 524.627 240.797, 523.428 237.672 C 522.197 234.465, 528.361 225.794, 534.622 221.925 C 538.265 219.673, 539.119 217, 536.196 217 C 531.396 217, 516.885 229.980, 513.314 237.468 C 511.359 241.567, 512.036 243.595, 516.098 245.809 C 519.251 247.528, 534.265 246.665, 546.580 244.057 C 578.265 237.348, 621.383 214.336, 631.199 198.896 C 635.243 192.535, 634.313 184.704, 628.761 178.381 C 623.322 172.186, 603.962 162.608, 583.500 155.989 C 579.650 154.743, 571.203 151.766, 564.730 149.372 C 544.386 141.850, 539 138.236, 539 132.107 C 539 115.512, 589.240 79.678, 636.707 62.415 C 655.686 55.513, 676.653 51.272, 686.677 52.306 C 699.499 53.630, 701.397 59.937, 693.796 75.972 C 688.538 87.065, 681.484 96.471, 668.114 110.220 C 663.985 114.466, 660.888 118.221, 661.232 118.565 C 661.576 118.909, 663.352 118.874, 665.178 118.487 C 667.585 117.977, 671.117 115.124, 678 108.129 C 696.517 89.312, 706.946 72.427, 706.985 61.200 C 707.007 54.782, 704.702 51.235, 698.685 48.434 C 694.151 46.323, 692.118 46.028, 682.500 46.089 C 676.450 46.128, 668.582 46.791, 665.016 47.564 M 934.317 64.250 C 931.096 67.818, 912.739 96.437, 904.010 111.500 C 903.054 113.150, 899.200 119.675, 895.446 126 C 888.062 138.440, 877.065 159.755, 877.025 161.705 C 876.985 163.614, 849.791 183.967, 847.250 183.989 C 845.761 184.002, 845.573 181.382, 847 180.500 C 847.550 180.160, 848 179.002, 848 177.927 C 848 176.852, 848.440 175.191, 848.977 174.236 C 850.307 171.873, 855 157.302, 855 155.536 C 855 154.009, 851.293 151, 849.412 151 C 848.783 151, 845.396 154.476, 841.885 158.725 C 828.284 175.181, 815.601 187, 811.543 187 C 807.779 187, 811.280 177.936, 821.149 162.134 C 822.953 159.244, 821.241 156.595, 817.314 156.199 C 813.598 155.824, 812.812 156.782, 805.596 170.479 C 799.842 181.400, 782.896 191.496, 778.200 186.800 C 774.356 182.956, 780.291 165.968, 793.852 142 C 801.486 128.507, 802.105 127.458, 808.020 118 C 817.985 102.064, 822.360 95.504, 829.217 86.213 C 832.987 81.104, 835.804 76.492, 835.477 75.963 C 834.429 74.267, 828.356 74.932, 825.682 77.036 C 822.148 79.816, 807.359 101.436, 798.004 117.500 C 797.043 119.150, 794.106 124.100, 791.477 128.500 C 788.848 132.900, 785.355 138.975, 783.714 142 C 779.728 149.350, 779.606 149.443, 776.609 147.479 C 770.043 143.177, 754.819 150.070, 743.134 162.635 C 733.683 172.797, 724.664 180.056, 716.481 184.084 C 708.883 187.824, 705.637 187.700, 705.174 183.651 C 704.869 180.988, 708.274 170.668, 710.156 168.550 C 712.520 165.889, 709.728 162, 705.453 162 C 704.530 162, 700.338 165.529, 696.137 169.842 C 684.934 181.345, 670.691 191, 664.925 191 C 657.940 191, 672.905 171.107, 686.793 161.930 C 694.445 156.874, 703.417 153, 707.474 153 C 709.450 153, 709.929 153.574, 710.187 156.250 C 710.423 158.706, 710.979 159.500, 712.462 159.500 C 713.915 159.500, 714.662 158.500, 715.335 155.651 C 716.120 152.331, 715.949 151.505, 714.090 149.651 C 709.706 145.277, 694.393 148.309, 681.402 156.123 C 674.379 160.347, 661.406 173.987, 657.706 181.038 C 647.819 199.878, 659.472 203.694, 681.441 188.810 C 684.773 186.552, 689.189 183.196, 691.253 181.352 C 696.176 176.955, 697.172 177.071, 696.392 181.953 C 695.168 189.604, 697.914 193, 705.325 193 C 709.199 193, 720.713 187.483, 727.110 182.562 L 731.721 179.015 731.610 185.085 C 731.520 190.066, 731.858 191.423, 733.500 192.656 C 738.893 196.704, 751.251 190.564, 763.859 177.570 C 767.357 173.966, 770.658 171.289, 771.196 171.621 C 771.818 172.005, 771.778 172.622, 771.087 173.313 C 770.489 173.911, 770 177.435, 770 181.144 C 770 186.771, 770.387 188.339, 772.337 190.605 C 776.383 195.309, 784.712 194.002, 795 187.050 C 800.224 183.519, 801.363 183.279, 800.536 185.885 C 799.732 188.421, 801.847 192.817, 804.239 193.576 C 810.087 195.432, 819.110 189.839, 832.373 176.135 C 840.527 167.710, 842.597 166.407, 841.719 170.250 C 839.991 177.819, 832.717 194.509, 830.826 195.242 C 825.979 197.124, 795.105 222.214, 785.376 232.179 C 770.769 247.139, 759.221 264.811, 757.536 274.785 C 755.966 284.078, 763.411 290.625, 772.677 288.100 C 790.071 283.361, 814.026 253.981, 832.093 215.227 C 842.065 193.836, 841.929 194.038, 850.584 187.738 C 863.009 178.695, 869.089 174.756, 869.693 175.359 C 869.999 175.666, 868.895 178.747, 867.239 182.208 C 863.100 190.857, 862.436 194.490, 864.435 197.541 C 866.176 200.198, 870.089 200.846, 871.739 198.750 C 872.281 198.063, 872.995 195.416, 873.326 192.869 C 873.896 188.494, 879.356 175.516, 881.074 174.454 C 881.512 174.184, 883.072 175.539, 884.541 177.465 C 888.062 182.081, 899.797 188.005, 905.384 187.986 C 910.362 187.970, 914 187.082, 914 185.883 C 914 185.398, 912.987 184.997, 911.750 184.994 C 907.633 184.984, 902.099 182.954, 898.938 180.294 C 894.974 176.959, 890.695 170.237, 891.387 168.434 C 892.751 164.880, 917.063 148.967, 923.500 147.415 C 926.868 146.603, 928.061 145.324, 927.300 143.341 C 925.656 139.056, 911.804 144.778, 897 155.856 C 891.775 159.766, 887.370 162.585, 887.212 162.119 C 886.712 160.650, 905.079 126.301, 911.167 117.320 C 912.725 115.021, 914 112.882, 914 112.567 C 914 111.839, 927.379 91.658, 936.793 78.186 C 940.757 72.513, 944 66.824, 944 65.543 C 944 61.468, 937.600 60.614, 934.317 64.250 M 1032.440 63.282 C 1029.788 64.749, 1028.962 65.952, 1022.337 78 C 1010.813 98.955, 983.564 152.764, 977.773 166 C 976.931 167.925, 974.612 173.157, 972.620 177.627 C 967.840 188.355, 967.245 191.508, 969.525 194.027 C 971.325 196.016, 974.650 196.592, 976.503 195.235 C 977.054 194.831, 981.374 190, 986.102 184.500 C 1000.028 168.302, 1011.999 157, 1015.229 157 C 1016.402 157, 1015.299 162.237, 1013.017 167.500 C 1009.410 175.820, 1009 177.196, 1009 180.965 C 1009 186.230, 1009.757 187.823, 1013.072 189.537 C 1018.268 192.224, 1026.359 190.656, 1034.285 185.424 C 1038.036 182.948, 1040 182.936, 1040 185.390 C 1040 187.853, 1044.504 189.256, 1049.992 188.501 C 1056.350 187.627, 1064.167 183.631, 1072.513 176.990 C 1075.962 174.245, 1078.982 172, 1079.224 172 C 1079.466 172, 1079.464 174.424, 1079.218 177.386 C 1078.844 181.897, 1079.114 183.114, 1080.886 184.886 C 1086.550 190.550, 1100.998 184.920, 1117.967 170.436 C 1120.875 167.953, 1123.481 166.148, 1123.758 166.425 C 1124.034 166.701, 1122.372 170.557, 1120.065 174.993 C 1114.865 184.986, 1114.948 187.406, 1120.500 187.742 C 1124.148 187.963, 1125.072 187.451, 1131 181.923 C 1147.522 166.516, 1165.098 154.530, 1164.979 158.750 C 1164.967 159.162, 1163.844 162.650, 1162.483 166.500 C 1159.237 175.683, 1159.132 183.279, 1162.223 185.443 C 1167.419 189.083, 1177.632 186.160, 1187.721 178.147 C 1190.592 175.866, 1193.069 174, 1193.226 174 C 1193.382 174, 1193.508 177.136, 1193.505 180.970 C 1193.498 190.308, 1195.486 192.527, 1203.780 192.441 C 1207.294 192.405, 1210.841 191.675, 1212.976 190.549 C 1218.344 187.717, 1226.182 179.047, 1229.500 172.270 C 1232.473 166.198, 1233.957 165.042, 1238.815 165.014 C 1240.088 165.006, 1243.364 164.039, 1246.095 162.864 C 1248.826 161.689, 1251.300 160.966, 1251.591 161.258 C 1251.883 161.550, 1251.657 164.424, 1251.088 167.644 C 1250.520 170.865, 1249.520 177.435, 1248.867 182.244 C 1247.777 190.270, 1247.829 191.153, 1249.495 192.994 C 1252.816 196.664, 1255.884 195.511, 1264.500 187.355 C 1289.849 163.360, 1308.145 151.512, 1324.068 148.782 C 1330.840 147.620, 1331.378 147.673, 1335.200 149.873 C 1339.450 152.318, 1341.488 151.772, 1340.832 148.364 C 1339.950 143.786, 1327.851 141.801, 1316.704 144.405 C 1301.319 147.999, 1286.893 156.310, 1269.806 171.425 C 1264.474 176.141, 1259.601 180, 1258.977 180 C 1258.273 180, 1258.047 178.953, 1258.383 177.250 C 1258.681 175.738, 1259.229 172.250, 1259.601 169.500 C 1259.973 166.750, 1261.521 160.711, 1263.041 156.080 C 1265.172 149.588, 1265.555 147.260, 1264.712 145.910 C 1263.504 143.977, 1259.761 142.912, 1257.999 144.001 C 1256.601 144.865, 1254 149.766, 1254 151.536 C 1254 153.595, 1246.440 159.535, 1241.923 161.025 C 1236.774 162.725, 1234.604 161.562, 1234.219 156.899 C 1233.737 151.060, 1232.184 149.205, 1226.810 148.053 C 1218.905 146.357, 1216.476 146.660, 1215.182 149.500 C 1214.555 150.875, 1213.471 152.004, 1212.771 152.010 C 1211.313 152.021, 1204.568 157.216, 1198 163.386 C 1185.562 175.071, 1173.747 182.689, 1169.939 181.481 C 1167.095 180.578, 1167.501 175.310, 1171.092 166.500 C 1173.462 160.687, 1174.198 156.238, 1173.122 154.229 C 1171.370 150.955, 1166.702 150.482, 1161.415 153.041 C 1156.472 155.434, 1140.197 166.715, 1135.743 170.836 C 1130.914 175.305, 1130.852 172.133, 1135.584 162.678 C 1140.680 152.496, 1141.087 149.452, 1137.564 147.847 C 1134.190 146.310, 1132.166 147.359, 1130.413 151.554 C 1126.333 161.318, 1095.574 183.586, 1089.034 181.511 C 1086.223 180.619, 1086.388 176.398, 1089.500 169.594 C 1090.875 166.588, 1092 163.461, 1092 162.646 C 1092 156.855, 1087.011 156.322, 1081.946 161.573 C 1073.772 170.047, 1052.329 183.939, 1049.818 182.388 C 1047.381 180.881, 1049.826 176.685, 1058.983 166.658 C 1063.584 161.619, 1075.493 153.708, 1082.321 151.153 C 1088.792 148.732, 1092 149.217, 1092 152.617 C 1092 155.076, 1092.696 155.438, 1095.418 154.393 C 1097.912 153.436, 1097.478 147.448, 1094.777 145.557 C 1090.314 142.431, 1079.780 144.051, 1068.901 149.537 C 1062.058 152.987, 1052.080 160.869, 1048.381 165.745 C 1039.462 177.504, 1029.014 185, 1021.544 185 L 1017.720 185 1018.263 179.742 C 1018.561 176.851, 1019.943 171.998, 1021.333 168.958 C 1027.288 155.941, 1028.512 148.879, 1025.128 147.068 C 1020.404 144.540, 1009.592 151.341, 995.427 165.750 C 982.421 178.980, 981.327 179.086, 987.396 166.527 C 1001.085 138.201, 1010.463 119.341, 1014.261 112.500 C 1016.704 108.100, 1020.495 101.125, 1022.686 97 C 1024.877 92.875, 1029.669 84.611, 1033.335 78.635 C 1037.001 72.660, 1040 67.202, 1040 66.508 C 1040 63.771, 1035.232 61.736, 1032.440 63.282 M 479.500 77.963 C 473.116 80.633, 459.794 101.189, 441.242 137 C 434.932 149.179, 434.436 149.836, 432.800 148.200 C 428.399 143.799, 409.258 150.813, 398.335 160.829 C 391.968 166.669, 376.269 177.864, 367.500 182.819 C 356.759 188.888, 349.940 191.025, 347.577 189.064 C 346.710 188.344, 346 187.312, 346 186.771 C 346 184.615, 352.185 173.063, 357.366 165.542 C 363.615 156.469, 363.632 154, 357.444 154 C 354.422 154, 353.529 154.621, 350.729 158.670 C 343.864 168.599, 341.189 171.665, 334.477 177.303 C 330.658 180.510, 323.832 184.969, 319.308 187.210 C 311.346 191.156, 311.003 191.232, 308.542 189.620 C 307.144 188.703, 306 187.152, 306 186.171 C 306 185.191, 307.614 180.386, 309.587 175.494 C 312.967 167.111, 313.071 166.525, 311.395 165.300 C 308.109 162.897, 305.564 164.013, 298.046 171.154 C 286.930 181.713, 270.131 193, 265.533 193 C 261.346 193, 265.513 184.632, 274.418 175.156 C 288.115 160.581, 310.734 150.094, 311.828 157.811 C 312.518 162.680, 318.014 161.177, 317.985 156.128 C 317.964 152.654, 317.030 151.342, 313.665 150.063 C 307.340 147.658, 295.652 149.836, 286.341 155.154 C 273.196 162.662, 258.521 178.074, 255.162 187.899 C 251.448 198.764, 258.650 203.169, 270.845 197.492 C 276.976 194.638, 290.343 185.432, 293.924 181.596 C 295.258 180.168, 296.710 179, 297.151 179 C 297.593 179, 297.915 181.793, 297.867 185.207 C 297.788 190.814, 298.049 191.645, 300.572 193.815 C 306.269 198.716, 317.660 195.293, 331.891 184.404 C 339.013 178.954, 339.254 178.854, 338.527 181.625 C 337.106 187.046, 337.558 191.003, 339.860 193.299 C 341.687 195.122, 343.082 195.470, 347.976 195.328 C 354.954 195.126, 362.376 191.894, 374.500 183.779 C 378.900 180.833, 383.034 178.095, 383.686 177.693 C 384.587 177.137, 384.619 177.745, 383.816 180.231 C 380.771 189.662, 382.020 194.538, 387.757 195.614 C 389.647 195.969, 392.894 195.749, 394.973 195.126 C 400.142 193.578, 414.368 183.289, 421.418 176 C 427.571 169.639, 429.623 168.570, 428.620 172.250 C 425.787 182.641, 427.415 190.405, 433.190 194.039 C 439.510 198.016, 454.221 194.809, 467.428 186.577 C 474.784 181.991, 482 175.516, 482 173.500 C 482 170.838, 480.437 171.426, 473.154 176.826 C 464.372 183.337, 455.660 187.533, 447.531 189.165 C 442.410 190.194, 441.627 190.112, 439.190 188.298 C 434.880 185.091, 434.975 177.696, 439.499 164.223 C 442.930 154.006, 452.046 134.640, 457.470 126.048 C 458.861 123.844, 460 121.839, 460 121.593 C 460 120.680, 470.426 104.187, 476.662 95.237 C 480.211 90.143, 484.440 84.996, 486.058 83.799 C 487.676 82.603, 489 80.861, 489 79.929 C 489 77.364, 483.602 76.247, 479.500 77.963 M 363.073 136.635 C 359.515 141.157, 360.914 145, 366.118 145 C 371.971 145, 374.996 141.758, 372.885 137.750 C 370.471 133.165, 366.185 132.678, 363.073 136.635 M 959.500 148.578 C 950.761 151.024, 941.807 151.469, 938.257 149.633 C 934.714 147.801, 932 148.373, 932 150.952 C 932 154.826, 935.133 155.998, 945.579 156.033 L 955.500 156.067 950.886 160.283 C 948.348 162.603, 942.723 167.650, 938.386 171.500 C 922.336 185.747, 921.657 186.498, 922.349 189.252 C 922.697 190.642, 923.565 192.003, 924.276 192.276 C 924.987 192.548, 929.378 191.934, 934.034 190.910 C 943.587 188.809, 957.092 188.416, 959.881 190.158 C 962.112 191.551, 965 190.646, 965 188.554 C 965 187.725, 963.782 186.248, 962.294 185.273 C 960.146 183.866, 957.465 183.500, 949.294 183.500 C 943.632 183.500, 939 183.244, 939 182.931 C 939 182.396, 948.596 172.997, 962.789 159.628 C 968.780 153.985, 970.925 150.306, 969.535 148.057 C 968.689 146.687, 965.702 146.842, 959.500 148.578 M 767.953 153.356 C 758.870 156.604, 747.660 167.388, 742.853 177.500 C 741.285 180.800, 740.001 184.014, 740.001 184.643 C 739.999 186.813, 742.730 186.821, 747.056 184.664 C 754.301 181.053, 778 156.472, 778 152.570 C 778 151.553, 771.594 152.054, 767.953 153.356 M 420.782 154.938 C 411.150 158.703, 399.103 169.797, 393.750 179.831 C 390.608 185.721, 390.354 187.538, 392.554 188.382 C 396.464 189.883, 408.754 181.210, 422.289 167.398 C 428.977 160.573, 431 157.869, 431 155.754 C 431 153.405, 430.596 153.007, 428.250 153.047 C 426.738 153.073, 423.377 153.923, 420.782 154.938 M 1219.432 156.500 C 1217.964 158.425, 1216.232 160, 1215.584 160 C 1213.746 160, 1207.517 166.992, 1204.587 172.342 C 1203.129 175.006, 1201.671 179.123, 1201.346 181.492 C 1200.833 185.234, 1201.045 185.954, 1202.959 186.978 C 1204.817 187.972, 1205.740 187.776, 1208.832 185.730 C 1213.826 182.424, 1219.594 176.524, 1223.495 170.732 L 1226.740 165.913 1224.930 162.363 C 1223.642 159.837, 1223.373 158.149, 1223.996 156.510 C 1224.853 154.257, 1224.454 153, 1222.884 153 C 1222.454 153, 1220.900 154.575, 1219.432 156.500 M 815.500 212.816 C 802.279 223.239, 783.067 242.060, 776.577 250.950 C 771.546 257.840, 768.664 263.500, 766.419 270.898 C 764.666 276.673, 764.658 278.151, 766.372 280.494 C 767.710 282.324, 767.862 282.325, 772.594 280.517 C 778.344 278.321, 792.100 265.144, 799.233 255 C 806.411 244.790, 816.136 228.422, 821.511 217.500 C 827.690 204.944, 828.098 203.984, 827.218 204.073 C 826.823 204.112, 821.550 208.047, 815.500 212.816"
          stroke="none" fill="currentColor" fill-rule="evenodd"/>
    <path fill-opacity="0.119"
          d="M 274 46.568 C 250.434 49.898, 213.967 61.157, 183.500 74.507 C 171.795 79.635, 143.431 94.269, 138.822 97.557 C 136.249 99.392, 131.945 102.007, 129.259 103.369 C 126.572 104.730, 123.785 106.554, 123.065 107.422 C 122.344 108.290, 121.173 109, 120.461 109 C 119.749 109, 119.017 109.400, 118.833 109.889 C 118.650 110.378, 114.073 113.772, 108.662 117.432 C 103.251 121.092, 98.180 124.629, 97.393 125.293 C 92.739 129.221, 75.309 146.843, 74.326 148.614 C 73.681 149.777, 73.040 153.475, 72.903 156.832 C 72.667 162.636, 72.818 163.078, 75.997 165.854 C 82.907 171.886, 109.561 178.552, 138.500 181.483 C 170.956 184.771, 203.564 191.586, 214.910 197.453 C 219.192 199.668, 221.259 203.120, 220.386 206.599 C 219.791 208.968, 212.681 216.885, 207.866 220.537 C 200.904 225.818, 192.061 231.411, 185 234.998 C 180.325 237.372, 174.925 240.218, 173 241.321 C 157.582 250.156, 105.431 270.456, 82.316 276.620 C 62.479 281.910, 42.045 284.489, 36.582 282.393 C 34.826 281.719, 34.297 275, 36 275 C 36.550 275, 37 274.330, 37 273.511 C 37 271.832, 38.359 270.004, 45.500 262.078 C 52.607 254.190, 57.874 249.383, 61.622 247.365 C 65.671 245.184, 66.828 242, 63.570 242 C 58.722 242, 33.877 264.597, 27.837 274.500 C 25.704 277.998, 25.503 282.762, 27.384 285.239 C 32.399 291.845, 52.999 291.388, 82.706 284.014 C 104.545 278.593, 127.310 270.500, 151 259.734 C 154.025 258.359, 157.512 256.927, 158.750 256.550 C 159.988 256.173, 161 255.501, 161 255.056 C 161 254.611, 163.362 253.267, 166.250 252.070 C 169.137 250.872, 172.625 249.381, 174 248.756 C 177.482 247.172, 194.390 237.684, 195 236.972 C 195.275 236.651, 198.638 234.679, 202.472 232.591 C 206.307 230.502, 210.132 228.051, 210.972 227.143 C 211.813 226.235, 214.638 223.776, 217.250 221.679 C 224.284 216.033, 226.975 212.010, 227.676 206.091 C 228.273 201.044, 228.212 200.892, 223.950 196.838 C 214.581 187.925, 200.316 183.649, 156.500 176.618 C 148.250 175.294, 135.425 173.461, 128 172.546 C 101.578 169.288, 86.201 165.344, 81.470 160.613 C 77.797 156.940, 81.002 148.465, 88.683 141.541 C 91.148 139.318, 95.041 135.700, 97.333 133.499 C 99.625 131.299, 103.975 127.709, 107 125.522 C 110.025 123.334, 112.950 121.048, 113.500 120.442 C 114.804 119.002, 124.527 112.763, 129 110.496 C 130.925 109.520, 132.775 108.295, 133.112 107.775 C 133.448 107.255, 134.016 106.877, 134.372 106.935 C 135.314 107.088, 140.447 104.371, 149 99.193 C 153.125 96.695, 160.775 92.653, 166 90.210 C 171.225 87.768, 179.775 83.748, 185 81.277 C 221.051 64.229, 264.051 52.047, 288.788 51.872 C 299.526 51.797, 305.035 53.328, 306.960 56.925 C 308.205 59.251, 307.649 68.960, 306.217 69.902 C 305.717 70.231, 305.033 71.625, 304.697 73 C 303.829 76.557, 295.478 88.919, 291.424 92.652 C 289.541 94.385, 288 96.324, 288 96.961 C 288 97.597, 287.550 97.840, 287 97.500 C 286.450 97.160, 286 97.584, 286 98.441 C 286 99.298, 285.589 100, 285.086 100 C 283.511 100, 277 106.886, 277 108.550 C 277 109.913, 277.387 109.864, 279.750 108.199 C 281.262 107.134, 283.438 105.972, 284.584 105.617 C 285.730 105.261, 288.430 102.850, 290.584 100.258 C 292.738 97.666, 296.637 93.385, 299.250 90.744 C 301.863 88.103, 304 85.445, 304 84.838 C 304 84.231, 304.791 83.007, 305.757 82.117 C 306.723 81.228, 308.149 79.263, 308.926 77.750 C 309.702 76.237, 310.712 75, 311.169 75 C 311.626 75, 312 73.875, 312 72.500 C 312 71.125, 312.450 70, 313 70 C 313.550 70, 314 69.127, 314 68.059 C 314 66.991, 314.450 65.840, 315 65.500 C 315.550 65.160, 316 62.615, 316 59.845 C 316 49.930, 309.951 45.961, 294 45.411 C 288.775 45.231, 279.775 45.751, 274 46.568 M 666.468 47.472 C 650.712 50.902, 626.725 58.839, 612.056 65.475 C 600.979 70.486, 577.122 83.386, 576 84.971 C 575.725 85.359, 571.936 88.112, 567.580 91.089 C 558.562 97.250, 541.703 112.041, 537.927 117.105 C 533.425 123.141, 531 128.046, 531 131.116 C 531 132.863, 530.582 133.860, 530 133.500 C 529.450 133.160, 529 133.359, 529 133.941 C 529 134.523, 529.450 135, 530 135 C 530.550 135, 531 135.743, 531 136.652 C 531 137.561, 532.462 140.273, 534.250 142.679 C 538.355 148.204, 547.744 152.899, 569.673 160.391 C 603.501 171.948, 613.912 176.488, 620.993 182.772 C 624.576 185.951, 625.299 187.194, 625.218 190.034 C 625.165 191.918, 624.644 193.619, 624.060 193.813 C 623.477 194.008, 623 194.591, 623 195.110 C 623 196.822, 616.641 203.081, 610.311 207.597 C 606.886 210.042, 596.705 215.798, 587.688 220.390 C 564.992 231.946, 547.302 237.739, 532 238.628 C 521.932 239.213, 520.318 238.544, 522.350 234.627 C 523.819 231.794, 529.801 225.143, 534.406 221.221 C 538.139 218.042, 536.734 216.580, 532.196 218.922 C 527.896 221.141, 519.138 229.499, 517.081 233.346 C 516.301 234.806, 515.288 236, 514.831 236 C 514.374 236, 514 236.900, 514 238 C 514 239.100, 513.560 240, 513.021 240 C 512.427 240, 512.492 240.985, 513.186 242.509 C 515.050 246.599, 520.341 247.602, 532.233 246.118 C 537.759 245.428, 546.439 243.809, 551.520 242.520 C 562.440 239.750, 587.920 229.931, 593.229 226.447 C 595.279 225.101, 597.250 224, 597.607 224 C 599.191 224, 613.801 213.930, 620.592 208.158 C 629.079 200.944, 632 196.152, 632 189.444 C 632 185.164, 629.247 179.210, 626.786 178.167 C 626.354 177.983, 626 177.169, 626 176.358 C 626 175.546, 625.601 175.129, 625.113 175.430 C 624.626 175.731, 623.657 175.292, 622.962 174.454 C 620.989 172.077, 597.960 161.231, 588.246 158.104 C 574.431 153.656, 554.128 146.098, 548.958 143.479 C 546.358 142.161, 542.563 139.511, 540.525 137.589 C 537.236 134.487, 536.901 133.729, 537.536 130.835 C 538.881 124.714, 547.179 114.647, 558.161 105.815 C 559.998 104.339, 562.850 101.950, 564.500 100.508 C 566.150 99.065, 569.525 96.695, 572 95.241 C 574.475 93.786, 576.725 92.339, 577 92.025 C 577.757 91.160, 583.066 87.783, 587 85.664 C 588.925 84.627, 594.814 81.347, 600.088 78.376 C 618.560 67.966, 649.062 56.743, 667.728 53.488 C 683.421 50.752, 694.983 51.977, 698.616 56.761 C 700.034 58.628, 700.514 66, 699.218 66 C 698.788 66, 698.338 67.192, 698.217 68.649 C 698.096 70.106, 697.489 71.911, 696.867 72.660 C 695.341 74.499, 692.389 79.685, 690.269 84.250 C 689.312 86.313, 688.184 88, 687.764 88 C 687.344 88, 686.998 88.563, 686.996 89.250 C 686.991 90.742, 679.292 101.155, 677.345 102.305 C 675.449 103.424, 671.879 107.114, 669.500 110.413 C 668.400 111.939, 666.003 114.222, 664.174 115.487 C 660.107 118.300, 661.163 119.274, 666.347 117.491 C 670.216 116.161, 675 112.430, 675 110.742 C 675 109.914, 680.248 104.051, 688.750 95.381 C 690.538 93.558, 692 91.602, 692 91.033 C 692 90.465, 692.450 90, 693 90 C 693.550 90, 694 89.362, 694 88.583 C 694 87.804, 694.354 87.017, 694.786 86.833 C 696.312 86.186, 699.724 80.440, 701.517 75.500 C 702.514 72.750, 703.706 70.073, 704.165 69.550 C 704.624 69.028, 705 67.790, 705 66.800 C 705 65.810, 705.450 65, 706 65 C 706.550 65, 707 63.200, 707 61 C 707 58.800, 706.550 57, 706 57 C 705.450 57, 705 56.409, 705 55.687 C 705 53.726, 700.003 49.316, 695.782 47.553 C 691.166 45.625, 675.157 45.580, 666.468 47.472 M 936.259 62.659 C 935.576 62.935, 934.287 64.700, 933.395 66.580 C 932.502 68.461, 931.373 70, 930.886 70 C 930.399 70, 930 70.475, 930 71.055 C 930 71.635, 928.200 74.760, 926 78 C 923.800 81.240, 922 84.150, 922 84.467 C 922 85.358, 916.595 93.458, 915.750 93.833 C 915.337 94.017, 915 94.804, 915 95.583 C 915 96.362, 914.634 97, 914.187 97 C 913.739 97, 912.755 98.575, 912 100.500 C 911.245 102.425, 910.261 104, 909.813 104 C 909.366 104, 909 104.620, 909 105.378 C 909 106.135, 908.308 107.330, 907.461 108.032 C 906.615 108.734, 904.985 111.490, 903.838 114.155 C 902.692 116.820, 901.359 119, 900.877 119 C 900.395 119, 900 119.675, 900 120.500 C 900 121.325, 899.660 122, 899.244 122 C 898.828 122, 897.853 123.463, 897.078 125.250 C 896.302 127.037, 893.835 131.200, 891.597 134.500 C 886.886 141.444, 883 148.753, 883 150.669 C 883 151.401, 882.550 152, 882 152 C 881.450 152, 881 153.098, 881 154.441 C 881 155.784, 880.550 157.160, 880 157.500 C 879.450 157.840, 879 158.938, 879 159.940 C 879 161.871, 873.355 167.994, 871.560 168.009 C 870.977 168.014, 868.250 170.048, 865.500 172.530 C 859.972 177.517, 849.275 184, 846.574 184 C 845.143 184, 844.962 183.433, 845.534 180.750 C 845.916 178.963, 846.886 175.925, 847.690 174 C 849.116 170.585, 850.337 166.974, 853.041 158.174 C 854.176 154.482, 854.160 153.714, 852.935 152.939 C 850.153 151.179, 847.519 151.930, 846.225 154.854 C 845.530 156.424, 841.988 160.811, 838.353 164.604 C 834.718 168.397, 830.178 173.406, 828.263 175.736 C 826.349 178.065, 823.144 180.973, 821.141 182.198 C 819.139 183.423, 816.905 185.004, 816.179 185.713 C 814.425 187.421, 809.353 187.361, 808.686 185.624 C 808.396 184.868, 808.798 183.016, 809.579 181.510 C 810.361 180.004, 811 178.351, 811 177.838 C 811 177.324, 812.575 174.442, 814.500 171.433 C 816.425 168.423, 818 165.520, 818 164.981 C 818 164.441, 818.450 164, 819 164 C 820.750 164, 820.172 157.003, 818.364 156.309 C 815.740 155.302, 814.023 157.065, 809.631 165.276 C 804.104 175.609, 799.112 181.093, 791.798 184.865 C 784.198 188.784, 778.741 189.061, 776.499 185.639 C 775.127 183.544, 775.115 182.656, 776.395 177.744 C 778.891 168.159, 792.862 138.957, 798.607 131.317 C 799.923 129.566, 801 127.653, 801 127.067 C 801 126.480, 801.450 126, 802 126 C 802.550 126, 803 125.325, 803 124.500 C 803 123.675, 803.450 123, 804 123 C 804.550 123, 805 122.519, 805 121.930 C 805 121.342, 806.251 118.979, 807.781 116.680 C 809.310 114.381, 811.153 111.324, 811.877 109.886 C 812.600 108.448, 814.274 106.106, 815.596 104.680 C 816.918 103.254, 818 101.393, 818 100.544 C 818 99.695, 818.340 99, 818.756 99 C 819.172 99, 820.065 97.763, 820.741 96.250 C 821.418 94.737, 823.145 92.150, 824.580 90.500 C 826.014 88.850, 827.787 86.351, 828.518 84.947 C 829.249 83.544, 831.007 81.524, 832.424 80.460 C 835.503 78.147, 835.720 76.363, 833.026 75.508 C 829.594 74.419, 824.699 77.616, 822 82.709 C 820.625 85.303, 817.700 89.706, 815.500 92.491 C 813.300 95.277, 811.050 98.270, 810.500 99.143 C 809.950 100.016, 807.813 103.275, 805.750 106.385 C 803.688 109.494, 802 112.480, 802 113.019 C 802 113.559, 801.550 114, 801 114 C 800.450 114, 800 114.706, 800 115.570 C 800 116.433, 798.704 119.023, 797.120 121.326 C 795.536 123.628, 793.217 127.687, 791.967 130.346 C 790.718 133.005, 789.089 135.412, 788.348 135.697 C 787.606 135.981, 787 136.841, 787 137.607 C 787 138.373, 786.550 139, 786 139 C 785.450 139, 785 139.815, 785 140.811 C 785 141.808, 784.100 143.589, 783 144.770 C 781.900 145.950, 781 147.385, 781 147.958 C 781 149.514, 777.753 149.216, 775.198 147.426 C 773.644 146.337, 771.956 146.063, 769.725 146.535 C 765.484 147.433, 757 151.051, 757 151.963 C 757 152.357, 755.844 153.206, 754.431 153.849 C 753.018 154.493, 749.306 157.793, 746.181 161.183 C 737.181 170.947, 728.210 178.959, 726.250 178.984 C 725.563 178.993, 725 179.363, 725 179.807 C 725 181.549, 711.480 187.163, 708.083 186.831 C 703.892 186.421, 701.984 183.857, 703.757 181.017 C 704.441 179.923, 705 178.346, 705 177.514 C 705 176.681, 705.450 176, 706 176 C 706.550 176, 707 175.094, 707 173.986 C 707 171.853, 708.871 167.953, 710.436 166.826 C 711.926 165.753, 709.021 163, 706.398 163 C 704.814 163, 701.818 165.237, 697.270 169.814 C 688.949 178.189, 677.267 186.832, 670.197 189.843 C 665.087 192.019, 661 192.016, 661 189.837 C 661 188.780, 664.054 182.894, 665.066 182 C 665.377 181.725, 667.017 179.475, 668.711 177 C 676.882 165.057, 696.445 153, 707.653 153 C 710.505 153, 711.068 153.432, 711.881 156.250 C 712.485 158.340, 712.857 158.786, 712.923 157.500 C 712.981 156.400, 713.281 154.555, 713.591 153.399 C 715.680 145.620, 699.413 146.468, 684.664 154.906 C 678.747 158.291, 665.215 171.545, 660.896 178.184 C 658.484 181.892, 655 191.763, 655 194.888 C 655 196.581, 659.753 197.776, 663.573 197.043 C 668.093 196.176, 675 193.016, 675 191.815 C 675 191.367, 675.498 191, 676.106 191 C 676.714 191, 678.917 189.650, 681 188 C 683.083 186.350, 685.238 185, 685.788 185 C 686.338 185, 688.258 183.627, 690.054 181.950 C 693.772 178.477, 696.959 176.558, 697.087 177.715 C 697.135 178.147, 697.354 180.975, 697.574 184 C 698.308 194.089, 703.668 195.324, 716.761 188.420 C 720.468 186.465, 724.540 183.762, 725.811 182.412 C 727.081 181.061, 728.513 180.199, 728.991 180.495 C 729.470 180.791, 730.144 180.575, 730.490 180.016 C 731.873 177.778, 732.640 179.243, 732.445 183.750 C 732.113 191.407, 734.394 194.410, 739.823 193.462 C 744.842 192.586, 753.216 186.757, 761.388 178.451 C 768.286 171.440, 771.120 169.767, 772.450 171.919 C 772.763 172.425, 772.339 173.518, 771.509 174.348 C 770.559 175.298, 770 177.742, 770 180.942 C 770 188.948, 773.011 192.915, 779.128 192.968 C 783.471 193.006, 789.560 190.648, 793 187.596 C 795.829 185.085, 800.948 182.669, 801.101 183.771 C 801.157 184.172, 801.360 186.240, 801.552 188.367 C 801.744 190.494, 802.176 192.509, 802.511 192.845 C 803.895 194.228, 810.742 193.351, 813.188 191.477 C 814.607 190.390, 816.776 188.825, 818.007 188 C 819.238 187.175, 820.811 185.959, 821.503 185.298 C 822.196 184.636, 823.040 184.374, 823.381 184.714 C 823.721 185.055, 824 184.630, 824 183.770 C 824 182.142, 830.351 176, 832.035 176 C 832.566 176, 833 175.530, 833 174.955 C 833 173.714, 836.754 169.989, 839.697 168.309 C 843.762 165.989, 844.092 169.332, 840.496 176.419 C 839.123 179.125, 838 181.924, 838 182.639 C 838 183.354, 837.100 185.542, 836 187.500 C 834.900 189.458, 833.995 191.610, 833.988 192.280 C 833.982 192.951, 830.065 196.200, 825.285 199.500 C 820.504 202.800, 814.772 207.091, 812.547 209.036 C 810.321 210.980, 806.700 213.882, 804.500 215.483 C 802.300 217.084, 797.308 221.676, 793.407 225.687 C 789.506 229.699, 786.018 232.685, 785.657 232.323 C 785.296 231.962, 785 232.443, 785 233.392 C 785 234.341, 784.550 234.840, 784 234.500 C 783.450 234.160, 782.996 234.471, 782.991 235.191 C 782.986 235.911, 781.636 237.563, 779.991 238.863 C 778.346 240.162, 777 241.817, 777 242.540 C 777 243.263, 775.920 244.704, 774.601 245.742 C 771.148 248.458, 762.478 262.112, 759.965 268.793 C 753.943 284.799, 763.465 292.772, 779.022 284.750 C 788.898 279.657, 805.830 261.964, 811.712 250.591 C 812.563 248.945, 813.763 247.029, 814.380 246.334 C 817.402 242.923, 818 241.967, 818 240.542 C 818 239.694, 818.450 239, 819 239 C 819.550 239, 820 238.137, 820 237.083 C 820 236.029, 820.372 235.017, 820.827 234.833 C 821.281 234.650, 823.784 230.225, 826.388 225 C 828.992 219.775, 832.057 213.700, 833.198 211.500 C 835.279 207.490, 835.701 206.497, 838.080 200 C 839.400 196.397, 843.007 192.373, 848.839 188 C 850.673 186.625, 852.696 185.036, 853.336 184.470 C 856.176 181.956, 867.354 175, 868.555 175 C 869.285 175, 870.113 175.374, 870.396 175.831 C 871.031 176.859, 867.881 184, 866.792 184 C 866.356 184, 866 185.125, 866 186.500 C 866 187.875, 865.550 189, 865 189 C 864.450 189, 864 191.040, 864 193.532 C 864 197.318, 864.371 198.202, 866.250 198.901 C 869.504 200.110, 871 199.181, 871 195.952 C 871 194.393, 871.450 192.840, 872 192.500 C 872.550 192.160, 873 190.777, 873 189.427 C 873 188.077, 873.429 186.191, 873.954 185.236 C 874.479 184.281, 875.804 181.363, 876.898 178.750 C 879.242 173.155, 881.085 172.746, 885.089 176.935 C 888.918 180.942, 897.977 186.616, 901.933 187.485 C 905.786 188.332, 914 187.279, 914 185.939 C 914 185.422, 912.411 185, 910.468 185 C 903.650 185, 894.984 179.349, 890.733 172.133 L 888.966 169.133 892.233 166.071 C 894.030 164.387, 895.805 163.007, 896.179 163.005 C 896.552 163.002, 897.452 162.427, 898.179 161.728 C 902.001 158.047, 917.900 148.729, 923.250 147.033 C 927.203 145.781, 927.510 145.354, 926.085 143.103 C 924.673 140.874, 918.580 142.427, 910.948 146.962 C 907.199 149.189, 903.518 151.625, 902.767 152.376 C 902.016 153.126, 900.001 154.465, 898.289 155.350 C 896.577 156.236, 894.332 158.033, 893.300 159.345 C 890.899 162.397, 887.194 163.669, 886.438 161.700 C 885.916 160.339, 888.757 154.258, 891.437 151 C 892.115 150.175, 893.282 147.925, 894.028 146 C 894.775 144.075, 896.269 140.925, 897.348 139 C 898.427 137.075, 900.650 133.025, 902.288 130 C 907.007 121.289, 907.324 120.757, 910.751 115.820 C 912.538 113.246, 914 110.658, 914 110.070 C 914 109.481, 914.450 109, 915 109 C 915.550 109, 916 108.325, 916 107.500 C 916 106.675, 916.450 106, 917 106 C 917.550 106, 918 105.530, 918 104.955 C 918 103.872, 926.895 90.302, 929.195 87.876 C 929.913 87.119, 931.139 85.263, 931.919 83.750 C 932.699 82.237, 933.712 81, 934.169 81 C 934.626 81, 935 80.325, 935 79.500 C 935 78.675, 935.450 78, 936 78 C 936.550 78, 937 77.531, 937 76.958 C 937 76.385, 937.443 75.372, 937.985 74.708 C 944.572 66.631, 945.061 65.461, 942.800 63.200 C 941.588 61.988, 938.543 61.737, 936.259 62.659 M 1032.250 63.662 C 1031.563 63.940, 1031 64.609, 1031 65.150 C 1031 65.691, 1029.875 67.608, 1028.500 69.411 C 1027.125 71.214, 1026 73.209, 1026 73.844 C 1026 74.480, 1025.550 75, 1025 75 C 1024.450 75, 1024 75.900, 1024 77 C 1024 78.100, 1023.550 79, 1023 79 C 1022.450 79, 1022 79.675, 1022 80.500 C 1022 81.325, 1021.550 82, 1021 82 C 1020.450 82, 1020 82.900, 1020 84 C 1020 85.100, 1019.645 86, 1019.211 86 C 1018.424 86, 1014.354 93.591, 1011.839 99.750 C 1011.109 101.537, 1010.172 103, 1009.756 103 C 1009.340 103, 1009 103.661, 1009 104.470 C 1009 105.823, 1006.981 109.881, 1003.604 115.314 C 999.828 121.389, 996 129.346, 996 131.121 C 996 132.219, 995.550 132.840, 995 132.500 C 994.436 132.152, 994 132.962, 994 134.358 C 994 135.719, 993.661 136.983, 993.246 137.167 C 992.831 137.350, 990.934 140.650, 989.031 144.500 C 987.128 148.350, 984.543 153.179, 983.286 155.230 C 982.029 157.282, 981 159.869, 981 160.980 C 981 162.091, 980.550 163, 980 163 C 979.450 163, 979 164.152, 979 165.559 C 979 167.010, 978.567 167.851, 978 167.500 C 977.450 167.160, 977 167.795, 977 168.911 C 977 170.026, 976.100 172.542, 975 174.500 C 973.900 176.458, 973 178.722, 973 179.530 C 973 180.339, 972.660 181, 972.243 181 C 971.354 181, 969 188.135, 969 190.829 C 969 192.824, 971.934 196, 973.777 196 C 975.159 196, 980 191.610, 980 190.356 C 980 189.853, 980.900 188.793, 982 188 C 983.100 187.207, 984 186.204, 984 185.771 C 984 184.996, 986.347 182.112, 992.716 175.061 C 994.484 173.102, 996.734 170.598, 997.716 169.496 C 1000.109 166.808, 1007.758 160.781, 1011.639 158.525 C 1015.052 156.541, 1019.314 157.086, 1017.167 159.233 C 1016.525 159.875, 1016 161.013, 1016 161.762 C 1016 162.511, 1014.942 165.458, 1013.649 168.312 C 1012.356 171.165, 1010.706 175.421, 1009.983 177.769 C 1008.801 181.604, 1008.866 182.413, 1010.618 185.741 C 1013.222 190.686, 1016.922 191.746, 1024.200 189.630 C 1027.201 188.758, 1031.328 186.909, 1033.372 185.522 C 1037.558 182.682, 1040 182.292, 1040 184.465 C 1040 188.055, 1050.058 189.256, 1056.741 186.464 C 1060.874 184.737, 1074 176.006, 1074 174.984 C 1074 174.387, 1078.437 172, 1079.547 172 C 1079.796 172, 1080 174.390, 1080 177.311 C 1080 185.580, 1084.689 188.970, 1092.185 186.120 C 1093.458 185.636, 1094.725 185.271, 1095 185.308 C 1095.632 185.396, 1105.093 179.917, 1106.701 178.534 C 1107.362 177.965, 1109.332 176.375, 1111.079 175 C 1112.826 173.625, 1115.524 171.321, 1117.074 169.881 C 1120.288 166.894, 1124 165.561, 1124 167.394 C 1124 169.161, 1121.625 173.983, 1120.750 173.992 C 1120.338 173.996, 1120 174.681, 1120 175.514 C 1120 176.346, 1119.550 177.921, 1119 179.014 C 1118.450 180.106, 1117.524 181.935, 1116.943 183.078 C 1115.526 185.863, 1117.344 188, 1121.129 188 C 1123.333 188, 1125.663 186.407, 1131.004 181.250 C 1140.716 171.872, 1142.392 170.396, 1144.766 169.125 C 1145.909 168.514, 1147.442 167.417, 1148.172 166.688 C 1150.526 164.340, 1163.384 156.961, 1164.459 157.341 C 1165.680 157.774, 1165.287 163.069, 1163.932 164.450 C 1163.419 164.973, 1163 166.159, 1163 167.086 C 1163 168.013, 1162.328 170.060, 1161.506 171.636 C 1159.049 176.348, 1159.549 182.049, 1162.656 184.718 C 1167.830 189.164, 1178.317 186.278, 1186.644 178.116 C 1192.924 171.960, 1197.618 171.835, 1193.815 177.925 C 1192.897 179.395, 1192.914 180.770, 1193.893 184.036 C 1195.831 190.504, 1198.229 192.513, 1203.913 192.430 C 1212.190 192.309, 1222.332 184.744, 1227.113 175.125 C 1231.581 166.135, 1232.435 165.342, 1238.414 164.639 C 1241.428 164.285, 1245.522 163.035, 1247.511 161.861 C 1252.066 159.174, 1253.147 160.217, 1251.803 166 C 1251.227 168.475, 1250.547 173.875, 1250.292 178 C 1250.036 182.125, 1249.348 186.078, 1248.763 186.784 C 1248 187.704, 1248.095 188.838, 1249.098 190.784 C 1252.277 196.956, 1254.257 196.477, 1263.708 187.250 C 1268.074 182.988, 1273.811 177.700, 1276.458 175.500 C 1279.104 173.300, 1282.897 170.151, 1284.885 168.502 C 1286.873 166.853, 1288.725 165.245, 1289 164.929 C 1289.275 164.613, 1290.175 164.042, 1291 163.661 C 1291.825 163.280, 1294.525 161.622, 1297 159.976 C 1311.703 150.203, 1329.954 145.229, 1335.559 149.468 C 1338.273 151.521, 1340 151.348, 1340 149.023 C 1340 144.192, 1329.645 142.021, 1317.983 144.407 C 1309.461 146.150, 1288.578 156.067, 1283.114 160.965 C 1281.252 162.634, 1279.432 164, 1279.068 164 C 1278.705 164, 1275.877 166.363, 1272.783 169.250 C 1269.690 172.137, 1266.223 175.162, 1265.079 175.971 C 1263.936 176.780, 1263 178.017, 1263 178.721 C 1263 179.486, 1261.748 180, 1259.883 180 C 1256.988 180, 1256.814 179.805, 1257.434 177.250 C 1257.801 175.738, 1258.333 172.025, 1258.616 169 C 1258.900 165.975, 1259.520 162.600, 1259.994 161.500 C 1262.099 156.623, 1264.118 148.855, 1263.823 146.773 C 1263.576 145.038, 1262.751 144.427, 1260.335 144.193 C 1257.766 143.944, 1257.036 144.320, 1256.455 146.193 C 1253.994 154.122, 1251.913 156.766, 1246.067 159.390 C 1239.862 162.174, 1234.072 162.821, 1233.890 160.750 C 1233.830 160.063, 1233.662 158.113, 1233.516 156.419 C 1233.055 151.057, 1231.423 149.256, 1225.961 148.085 C 1218.719 146.532, 1217.425 146.703, 1215.626 149.448 C 1214.744 150.794, 1212.555 152.608, 1210.761 153.478 C 1206.771 155.415, 1201 160.543, 1201 162.153 C 1201 162.802, 1200.712 163.045, 1200.360 162.693 C 1200.008 162.341, 1198.096 163.798, 1196.110 165.931 C 1191.454 170.931, 1177.151 180.588, 1173.074 181.484 C 1171.101 181.917, 1169.371 181.723, 1168.459 180.966 C 1166.578 179.405, 1166.574 173.569, 1168.452 171.690 C 1169.251 170.892, 1169.679 170.013, 1169.404 169.737 C 1168.603 168.936, 1170.130 163.962, 1171.010 164.506 C 1172.268 165.284, 1172.626 154.871, 1171.400 153.194 C 1170.789 152.358, 1168.890 151.727, 1167.137 151.777 C 1163.959 151.867, 1155.223 156.294, 1151.500 159.701 C 1150.400 160.708, 1147.224 162.978, 1144.442 164.747 C 1141.661 166.515, 1138.320 169.095, 1137.018 170.481 C 1134.706 172.942, 1131.603 173.785, 1130.633 172.215 C 1130.115 171.377, 1137.222 156.378, 1138.962 154.638 C 1140.659 152.941, 1140.144 149.147, 1138.065 148.035 C 1135.179 146.490, 1131.002 148.374, 1130.992 151.225 C 1130.983 153.650, 1119.763 166.430, 1118.634 165.300 C 1118.285 164.952, 1118 165.170, 1118 165.785 C 1118 167.047, 1111.649 171.637, 1102.001 177.347 C 1097.316 180.120, 1094.243 181.237, 1091 181.347 L 1086.500 181.500 1086.199 177.373 C 1085.999 174.645, 1086.423 172.720, 1087.449 171.694 C 1088.302 170.841, 1089 169.211, 1089 168.071 C 1089 166.932, 1089.477 166, 1090.060 166 C 1090.674 166, 1090.990 164.421, 1090.810 162.250 C 1090.561 159.238, 1090.057 158.437, 1088.250 158.180 C 1087.013 158.005, 1086 158.369, 1086 158.989 C 1086 159.610, 1085.550 159.840, 1085 159.500 C 1084.450 159.160, 1084 159.499, 1084 160.254 C 1084 161.863, 1079.550 166.214, 1076.063 168.013 C 1074.723 168.705, 1073.148 169.669, 1072.563 170.155 C 1071.978 170.641, 1070.150 172.157, 1068.500 173.523 C 1064.691 176.675, 1052.727 183, 1050.572 183 C 1048.203 183, 1047.522 180.278, 1049.116 177.183 C 1049.876 175.707, 1054.548 170.517, 1059.499 165.649 C 1066.004 159.251, 1070.199 156.026, 1074.630 154.016 C 1087.187 148.318, 1091.984 147.850, 1092.015 152.317 C 1092.028 154.093, 1092.211 154.220, 1093 153 C 1093.533 152.175, 1093.976 151.928, 1093.985 152.450 C 1093.993 152.973, 1094.496 152.904, 1095.101 152.299 C 1095.750 151.650, 1095.926 149.939, 1095.529 148.131 C 1094.977 145.621, 1094.228 144.946, 1091.404 144.416 C 1085.051 143.224, 1070.277 148.162, 1061.628 154.369 C 1056.756 157.865, 1048.462 166.269, 1046.448 169.750 C 1045.415 171.537, 1044.263 173, 1043.890 173 C 1043.517 173, 1041.701 174.413, 1039.856 176.141 C 1032.094 183.406, 1022.788 187.295, 1018.569 185.037 C 1016.125 183.729, 1016.099 183.497, 1017.610 176.533 C 1018.219 173.728, 1018.581 172.819, 1021.001 168.013 C 1022.664 164.709, 1024.970 157.613, 1024.985 155.750 C 1024.993 154.787, 1025.450 154, 1026 154 C 1027.672 154, 1027.151 148.272, 1025.418 147.607 C 1021.178 145.980, 1017.587 147.510, 1008.062 155 C 1004.907 157.481, 992.112 170.206, 989.738 173.224 C 988.112 175.292, 984.863 176.182, 983.064 175.053 C 982.014 174.395, 981.917 173.796, 982.700 172.826 C 984.468 170.638, 992.996 153.598, 992.998 152.250 C 992.999 151.563, 993.450 151, 994 151 C 994.550 151, 995 150.100, 995 149 C 995 147.900, 995.450 147, 996 147 C 996.550 147, 997 146.143, 997 145.095 C 997 143.054, 1001.003 134.721, 1002.250 134.167 C 1002.663 133.983, 1003 133.393, 1003 132.854 C 1003 131.162, 1008.283 121, 1009.162 121 C 1009.623 121, 1010 120.100, 1010 119 C 1010 117.900, 1010.450 117, 1011 117 C 1011.550 117, 1012 116.100, 1012 115 C 1012 113.900, 1012.450 113, 1013 113 C 1013.550 113, 1014 112.190, 1014 111.200 C 1014 110.210, 1014.421 108.972, 1014.935 108.450 C 1016.142 107.224, 1023.948 93.040, 1024.677 90.750 C 1024.983 89.787, 1025.631 89, 1026.117 89 C 1026.602 89, 1027 88.325, 1027 87.500 C 1027 86.675, 1027.450 86, 1028 86 C 1028.550 86, 1029 85.073, 1029 83.941 C 1029 82.809, 1029.450 82.160, 1030 82.500 C 1030.550 82.840, 1031 82.191, 1031 81.059 C 1031 79.927, 1031.338 78.996, 1031.750 78.992 C 1032.162 78.988, 1032.995 77.975, 1033.601 76.742 C 1034.206 75.509, 1035.741 72.608, 1037.012 70.296 C 1038.928 66.809, 1039.103 65.829, 1038.038 64.546 C 1036.766 63.013, 1034.657 62.691, 1032.250 63.662 M 482 77.817 C 479.431 78.208, 470 87.414, 470 89.531 C 470 90.178, 468.875 91.922, 467.500 93.405 C 466.125 94.889, 465 96.530, 465 97.052 C 465 97.573, 464.656 98, 464.236 98 C 463.816 98, 462.684 99.688, 461.721 101.750 C 460.758 103.813, 457.983 108.875, 455.554 113 C 453.124 117.125, 450.342 122.075, 449.371 124 C 448.399 125.925, 447.352 127.725, 447.044 128 C 446.737 128.275, 445.171 130.975, 443.564 134 C 441.958 137.025, 439.802 141.015, 438.773 142.868 C 437.744 144.720, 437.142 146.475, 437.435 146.769 C 437.729 147.062, 437.200 147.864, 436.261 148.551 C 434.882 149.559, 434.167 149.530, 432.554 148.400 C 431.454 147.630, 429.418 147.005, 428.027 147.012 C 424.728 147.027, 414.845 149.667, 414.089 150.735 C 413.765 151.192, 411.250 152.997, 408.500 154.747 C 405.750 156.496, 402.375 158.981, 401 160.268 C 394.089 166.736, 374.282 180.152, 364.812 184.778 C 353.216 190.444, 347.403 191.476, 345.376 188.231 C 344.500 186.828, 344.916 185.119, 347.386 179.962 C 350.261 173.960, 358.395 161.161, 360.072 160 C 360.469 159.725, 360.953 158.375, 361.147 157 C 361.464 154.757, 361.114 154.468, 357.750 154.190 C 354.886 153.953, 354 154.248, 354 155.440 C 354 156.298, 353.550 157, 353 157 C 352.450 157, 352 157.481, 352 158.070 C 352 159.855, 345.854 168.308, 342.235 171.500 C 340.364 173.150, 337.159 176.118, 335.111 178.097 C 329.733 183.292, 313.330 191.315, 309.608 190.571 C 305.606 189.771, 304.038 187.353, 305.107 183.627 C 305.579 181.981, 306.423 180.177, 306.983 179.617 C 307.542 179.058, 308 177.804, 308 176.830 C 308 175.857, 308.888 173.479, 309.974 171.546 C 312.255 167.484, 311.766 165.230, 308.419 164.390 C 306.270 163.851, 303 165.719, 303 167.486 C 303 168.277, 293.733 176.933, 292.845 176.972 C 292.484 176.987, 290.234 178.603, 287.845 180.562 C 285.455 182.520, 282.718 184.761, 281.763 185.541 C 278.027 188.589, 267.717 193.103, 265.163 192.808 C 263.042 192.563, 262.551 192.027, 262.751 190.179 C 263.263 185.440, 275.070 171.622, 283.410 166 C 285.450 164.625, 287.687 162.986, 288.381 162.358 C 290.518 160.422, 299.253 156.384, 304.209 155.040 C 309.495 153.607, 314 154.287, 314 156.519 C 314 157.334, 314.450 158, 315 158 C 316.548 158, 316.180 153.037, 314.508 151.365 C 313.687 150.544, 312.562 150.153, 312.008 150.495 C 311.453 150.838, 311 150.579, 311 149.919 C 311 149.070, 309.470 148.881, 305.750 149.271 C 294.782 150.421, 283.568 156.436, 271.763 167.500 C 265.568 173.307, 258 182.924, 258 184.990 C 258 185.545, 257.550 186, 257 186 C 256.450 186, 256 187.575, 256 189.500 C 256 191.425, 255.550 193, 255 193 C 254.450 193, 254 193.702, 254 194.559 C 254 195.416, 254.450 195.840, 255 195.500 C 255.550 195.160, 256 195.568, 256 196.406 C 256 202.127, 270.409 199.279, 279.607 191.740 C 281.198 190.436, 284.082 188.415, 286.015 187.249 C 287.948 186.082, 290.549 183.749, 291.795 182.064 C 293.195 180.169, 294.950 179, 296.391 179 C 298.515 179, 298.771 179.537, 299.270 185.036 C 299.950 192.536, 302.033 196, 305.864 196 C 312.729 196, 324.507 190.381, 331.429 183.804 C 333.040 182.273, 335.177 180.761, 336.179 180.443 C 337.181 180.125, 338.032 179.333, 338.070 178.683 C 338.109 178.032, 338.494 178.400, 338.925 179.500 C 339.356 180.600, 339.375 182.673, 338.966 184.106 C 337.957 187.640, 338.823 191.530, 341.070 193.563 C 345.887 197.923, 363.108 192.255, 375.213 182.325 C 378.067 179.984, 380.613 178.279, 380.870 178.537 C 381.127 178.794, 382.129 178.289, 383.095 177.414 C 384.761 175.907, 384.825 176.195, 384.312 182.888 C 383.569 192.599, 384.248 194.768, 388.268 195.523 C 390.057 195.858, 392.866 195.628, 394.510 195.010 C 397.185 194.007, 404.712 189.381, 406 187.950 C 406.275 187.644, 408.075 186.437, 410 185.266 C 411.925 184.095, 416.075 180.237, 419.222 176.692 C 427.882 166.939, 431.498 167.131, 428.255 177.172 C 426.994 181.077, 426.879 182.460, 427.790 182.763 C 428.455 182.985, 429 184.072, 429 185.179 C 429 187.156, 432.393 192.791, 434.452 194.235 C 436.626 195.759, 447.539 194.984, 453 192.918 C 459.179 190.581, 469.117 185.188, 470.235 183.566 C 470.639 182.980, 470.976 182.786, 470.985 183.134 C 470.993 183.483, 472.912 182.021, 475.250 179.884 C 477.587 177.748, 479.837 176, 480.250 176 C 480.662 176, 480.993 174.988, 480.985 173.750 C 480.972 171.931, 480.784 171.787, 480 173 C 479.467 173.825, 479.024 174.163, 479.015 173.752 C 479.007 173.341, 477.331 174.578, 475.292 176.502 C 473.252 178.426, 471.034 180, 470.363 180 C 469.692 180, 468.467 180.676, 467.640 181.503 C 465.079 184.064, 450.897 189.199, 444.876 189.745 C 439.537 190.229, 438.968 190.069, 436.475 187.382 C 434.210 184.942, 433.886 183.886, 434.362 180.500 C 435.693 171.034, 436.239 168.445, 437.093 167.550 C 437.592 167.027, 438 165.592, 438 164.359 C 438 163.126, 438.450 161.840, 439 161.500 C 439.550 161.160, 440 160.168, 440 159.296 C 440 157.696, 446.751 142.928, 447.906 142 C 448.249 141.725, 450.360 137.900, 452.597 133.500 C 459.394 120.136, 464.234 111.518, 465.140 111.167 C 465.613 110.983, 466 110.196, 466 109.417 C 466 108.638, 466.450 108, 467 108 C 467.550 108, 468 107.533, 468 106.962 C 468 105.428, 479.790 88.166, 482.323 85.991 C 483.520 84.962, 485.554 83.218, 486.842 82.114 C 490.341 79.114, 487.873 76.923, 482 77.817 M 365.201 135.242 C 363.271 136.172, 362.950 137.003, 363.201 140.425 C 363.445 143.748, 363.905 144.558, 365.698 144.813 C 366.908 144.985, 368.820 144.631, 369.948 144.028 C 372.734 142.537, 372.813 136.505, 370.066 135.035 C 367.824 133.835, 368.152 133.821, 365.201 135.242 M 958.500 149.132 C 948.680 151.348, 940.837 151.484, 937.007 149.504 C 933.678 147.782, 932.479 148.786, 933.414 152.513 C 934.168 155.519, 938.404 156.454, 948.112 155.760 C 951.925 155.487, 955.247 155.591, 955.495 155.992 C 956.014 156.832, 942.423 170.061, 936.498 174.484 C 928.516 180.441, 924 185.725, 924 189.105 C 924 192.697, 922.540 192.660, 940.500 189.521 C 949.778 187.899, 958.291 188.250, 960.913 190.362 C 961.980 191.222, 962.428 191.193, 962.748 190.244 C 962.981 189.553, 963.627 189.270, 964.185 189.614 C 964.788 189.987, 964.744 189.390, 964.077 188.144 C 962.018 184.297, 959.103 183.492, 947.750 183.636 C 941.837 183.711, 937 183.486, 937 183.136 C 937.001 182.490, 948.507 171.404, 960.493 160.503 C 967.095 154.498, 968.913 151.374, 967.340 148.735 C 966.624 147.534, 965.316 147.593, 958.500 149.132 M 765.203 153.856 C 756.325 157.461, 741 172.983, 741 178.371 C 741 179.202, 740.550 180.160, 740 180.500 C 739.450 180.840, 739 182.186, 739 183.492 C 739 186.137, 741.603 187.460, 744.609 186.343 C 747.459 185.284, 754.391 180.691, 755.300 179.260 C 755.740 178.567, 756.656 178, 757.337 178 C 758.594 178, 768 168.979, 768 167.774 C 768 167.413, 770.059 165.029, 772.575 162.477 C 775.188 159.826, 776.923 157.241, 776.619 156.450 C 776.327 155.688, 776.587 154.755, 777.198 154.378 C 777.918 153.933, 778.024 154.152, 777.500 155 C 776.976 155.848, 777.082 156.067, 777.802 155.622 C 778.413 155.245, 778.659 154.275, 778.349 153.468 C 777.574 151.447, 770.633 151.652, 765.203 153.856 M 421 153.935 C 410.994 156.990, 397.706 169.107, 392.060 180.325 C 389.191 186.026, 388.862 187.307, 390.062 188.102 C 394.406 190.979, 406.821 183.827, 420.231 170.721 C 425.983 165.099, 431.212 159.234, 431.852 157.686 C 432.541 156.020, 432.604 155.127, 432.008 155.495 C 431.453 155.838, 431 155.416, 431 154.559 C 431 152.851, 425.646 152.517, 421 153.935 M 1220.750 154.392 C 1219.787 155.123, 1219 156.041, 1219 156.432 C 1219 157.609, 1216.542 159.693, 1214.322 160.398 C 1211.648 161.247, 1208 164.402, 1208 165.867 C 1208 166.490, 1207.634 167, 1207.187 167 C 1206.739 167, 1205.755 168.575, 1205 170.500 C 1204.245 172.425, 1203.312 174, 1202.927 174 C 1202.542 174, 1201.978 175.238, 1201.674 176.750 C 1201.370 178.262, 1200.812 180.759, 1200.435 182.298 C 1199.707 185.267, 1201.858 187.903, 1205.062 187.968 C 1207.037 188.008, 1217.887 179.898, 1217.952 178.333 C 1217.978 177.692, 1218.338 177.017, 1218.750 176.833 C 1219.162 176.650, 1221.188 174.289, 1223.250 171.586 C 1226.857 166.859, 1228.093 163, 1226 163 C 1225.450 163, 1225 160.750, 1225 158 C 1225 152.728, 1224.029 151.903, 1220.750 154.392 M 824 205.746 C 822.075 207.237, 819.866 209.068, 819.090 209.816 C 818.315 210.564, 816.065 212.207, 814.090 213.466 C 812.116 214.726, 807.350 218.722, 803.500 222.347 C 799.650 225.972, 796.142 228.952, 795.705 228.969 C 794.775 229.005, 790 233.633, 790 234.498 C 790 234.822, 787.507 237.600, 784.460 240.671 C 778.819 246.357, 773 254.063, 773 255.847 C 773 256.389, 772.641 256.983, 772.203 257.167 C 770.931 257.699, 767.085 266.576, 765.514 272.608 C 763.040 282.105, 767.296 284.735, 776.101 279.151 C 781.864 275.496, 792.673 264.797, 797.023 258.441 C 798.883 255.724, 800.876 253, 801.452 252.389 C 805.867 247.707, 809.393 242.215, 814.378 232.258 C 814.995 231.025, 815.837 230.012, 816.250 230.008 C 816.663 230.004, 817 229.100, 817 228 C 817 226.900, 817.450 226, 818 226 C 818.550 226, 819 225.345, 819 224.544 C 819 223.743, 820.290 220.900, 821.867 218.226 C 829.162 205.854, 829.970 201.122, 824 205.746"
          stroke="none" fill="currentColor" fill-rule="evenodd"/>
</svg>